<?xml version="1.0" standalone="no"?>
<svg xmlns="http://www.w3.org/2000/svg" width="236" height="102.5" viewBox="0 0 236 102.5" xmlns:c2pa="http://c2pa.org/manifest"><metadata><c2pa:manifest>AAAIGGp1bWIAAAAeanVtZGMycGEAEQAQgAAAqgA4m3EDYzJwYQAAAAfyanVtYgAAAEdqdW1kYzJtYQARABCAAACqADibcQN1cm46dXVpZDo0NDVmOTYwYi02NzliLTQ3YTMtYjYxNS1iYWE5NjFkZmM4ZWIAAAADOWp1bWIAAAApanVtZGMyYXMAEQAQgAAAqgA4m3EDYzJwYS5hc3NlcnRpb25zAAAAAO5qdW1iAAAAKWp1bWRjYm9yABEAEIAAAKoAOJtxA2MycGEuYWN0aW9ucy52MgAAAAC9Y2JvcqFnYWN0aW9uc4GkZmFjdGlvbmxjMnBhLmNyZWF0ZWRxZGlnaXRhbFNvdXJjZVR5cGV4Pmh0dHA6Ly9jdi5pcHRjLm9yZy9uZXdzY29kZXMvZGlnaXRhbHNvdXJjZXR5cGUvZGlnaXRhbENyZWF0aW9ubXNvZnR3YXJlQWdlbnSiZG5hbWVlTG9sbHlndmVyc2lvbmcxLjExMi4wZHdoZW50MjAyNi0wOC0xMFQwMzo1Nzo1NloAAACranVtYgAAAChqdW1kY2JvcgARABCAAACqADibcQNjMnBhLmhhc2guZGF0YQAAAAB7Y2JvcqVqZXhjbHVzaW9uc4GiZXN0YXJ0GMBmbGVuZ3RoGQrMZG5hbWVuanVtYmYgbWFuaWZlc3RjYWxnZnNoYTI1NmRoYXNoWCBsvPGBAO/KfGjxNrZrCq4Fiu0IPHyUwX3evVwLrErIhmNwYWRIAAAAAAAAAAAAAAFvanVtYgAAACxqdW1kY2JvcgARABCAAACqADibcQN0b29scy5sb2xseS5leHBvcnQAAAABO2Nib3KoZ3N1cmZhY2VkZG9jc2ZlbmdpbmVtbm9kZSB2MjQuMTkuMGJvc2ZkYXJ3aW5mZm9ybWF0Y3N2Z2R0b29sblVSTCBTY3JlZW5zaG90ZGRhdGV4GDIwMjYtMDgtMTBUMDM6NTc6NTYuOTEzWmpkaW1lbnNpb25zbjE0NDAgw5cgOTAwIHB4ZmlucHV0c6ZjdXJseDIvIy90b29sL3FyLWNvZGU/dXJsPWh0dHBzOi8vbG9sbHkudG9vbHMmZm9ybWF0PeKApmZ3YWl0TXNkMjAwMGdjcm9wVG9wcjAuNjIxMTExMTExMTExMTExMWljcm9wUmlnaHRyMC44MDk3MjIyMjIyMjIyMjIyamNyb3BCb3R0b21zMC4yMTE2NjY2NjY2NjY2NjY2N2hjcm9wTGVmdGEwAAACCWp1bWIAAAAnanVtZGMyY2wAEQAQgAAAqgA4m3EDYzJwYS5jbGFpbS52MgAAAAHaY2JvcqZoZGM6dGl0bGVuVVJMIFNjcmVlbnNob3RqaW5zdGFuY2VJRHgtdXJuOnV1aWQ6NTBiN2JiMzEtZWEwNS00Zjc4LWJiN2EtNWI4Njg5MWRlMTVmdGNsYWltX2dlbmVyYXRvcl9pbmZvomRuYW1lZUxvbGx5Z3ZlcnNpb25nMS4xMTIuMHJjcmVhdGVkX2Fzc2VydGlvbnODomN1cmx4KnNlbGYjanVtYmY9YzJwYS5hc3NlcnRpb25zL2MycGEuYWN0aW9ucy52MmRoYXNoWCCa0gETGJQ2B4aMCQbce5XHxJfbWumtVeIxaJCxogo/gKJjdXJseClzZWxmI2p1bWJmPWMycGEuYXNzZXJ0aW9ucy9jMnBhLmhhc2guZGF0YWRoYXNoWCDYIuOWXUEnqsXZ9JmXeIDaez+lK91lEs+6waBKhiygpqJjdXJseC1zZWxmI2p1bWJmPWMycGEuYXNzZXJ0aW9ucy90b29scy5sb2xseS5leHBvcnRkaGFzaFggCojc8aMbHH3Cj6lj0kfv7eY1WHPaSWjnvBOKc62EyF1pc2lnbmF0dXJleBlzZWxmI2p1bWJmPWMycGEuc2lnbmF0dXJlY2FsZ2ZzaGEyNTYAAAJhanVtYgAAAChqdW1kYzJjcwARABCAAACqADibcQNjMnBhLnNpZ25hdHVyZQAAAAIxY2JvctKEWQHgogEmGCGBWQHXMIIB0zCCAXmgAwIBAgIJYnQ5vRNn5EH9MAoGCCqGSM49BAMCMDUxDjAMBgNVBAoMBUxvbGx5MSMwIQYDVQQDDBpMb2xseSBPbi1EZXZpY2UgQ3JlZGVudGlhbDAeFw0yNjA4MTAwMzU2NTZaFw0yNzA4MTAwMzU3NTZaMDUxDjAMBgNVBAoMBUxvbGx5MSMwIQYDVQQDDBpMb2xseSBPbi1EZXZpY2UgQ3JlZGVudGlhbDBZMBMGByqGSM49AgEGCCqGSM49AwEHA0IABH1epA4n+48qGg2eDrvQvnO4jt7PtZR7pEHcmKiZVMxixKGQyCIAu+rZ3Y30pY4/DKK+5LMDOhpT3Gsy2VxljNujcjBwMAkGA1UdEwQCMAAwDgYDVR0PAQH/BAQDAgeAMBMGA1UdJQQMMAoGCCsGAQUFBwMEMB0GA1UdDgQWBBRUab9KMlWi3KR+vF9CrNGCOjspqzAfBgNVHSMEGDAWgBRUab9KMlWi3KR+vF9CrNGCOjspqzAKBggqhkjOPQQDAgNIADBFAiBMUa8qQGL3uCaMozdN8JRVieNCfaxGhRUXZbp/ag/+GgIhALABL+jIgOTQ8ufO08t6BqXoQRKiZ4paWxjrzRN9MG/7oPZYQM20b8d+28Hqij0xI9jGu8lq3fQMY+5h59orr1d6JhPBCkh2+wCPGsqQVJ704rPoKisjv3nQLrbD1i/2IAUGHTs=</c2pa:manifest></metadata><defs><clipPath id="fcbgclip-2" clipPathUnits="userSpaceOnUse"><rect x="12" y="12.25" width="16" height="16" rx="4" ry="4" fill="#fff"/></clipPath><filter id="shadow-3" filterUnits="userSpaceOnUse" x="64.75" y="34.5" width="42" height="42"><feGaussianBlur in="SourceGraphic" stdDeviation="2"/></filter><filter id="shadow-4" filterUnits="userSpaceOnUse" x="179.890625" y="34.5" width="42" height="42"><feGaussianBlur in="SourceGraphic" stdDeviation="2"/></filter><filter id="shadow-5" filterUnits="userSpaceOnUse" x="49" y="60.5" width="42" height="42"><feGaussianBlur in="SourceGraphic" stdDeviation="2"/></filter><filter id="shadow-6" filterUnits="userSpaceOnUse" x="177.796875" y="60.5" width="42" height="42"><feGaussianBlur in="SourceGraphic" stdDeviation="2"/></filter></defs><g><g><rect x="0" y="0" width="236" height="102.5" rx="16" ry="16" fill="rgb(255,255,255)"/><g><g><g><path d="M2.46,0L0.2,-7.7L1.16,-7.7L3.11,-0.77L2.76,-0.77L4.92,-7.7L5.95,-7.7L8.1,-0.78L7.76,-0.78L9.71,-7.7L10.66,-7.7L8.4,0L7.44,0L5.3,-6.96L5.57,-6.96L3.43,0L2.46,0ZM11.66,0L11.66,-8.03L12.51,-8.03L12.51,-3.86L12.28,-3.86Q12.4,-4.32 12.62,-4.61Q12.84,-4.91 13.13,-5.08Q13.41,-5.26 13.71,-5.33Q14.01,-5.4 14.26,-5.4Q15.16,-5.4 15.71,-4.83Q16.27,-4.25 16.27,-3.11L16.27,0L15.38,0L15.38,-2.98Q15.38,-3.83 15,-4.21Q14.62,-4.58 14.04,-4.58Q13.63,-4.58 13.29,-4.4Q12.96,-4.22 12.75,-3.86Q12.55,-3.5 12.55,-2.97L12.55,0L11.66,0ZM18.17,0L18.17,-4.92L18.56,-4.52L17.14,-4.52L17.14,-5.29L19.06,-5.29L19.06,0L18.17,0ZM18.12,-6.45L18.12,-7.73L19.11,-7.73L19.11,-6.45L18.12,-6.45ZM22.51,0Q22.24,0 21.98,-0.08Q21.72,-0.15 21.51,-0.32Q21.3,-0.49 21.18,-0.76Q21.06,-1.02 21.06,-1.41L21.06,-6.6L21.94,-6.6L21.94,-1.35Q21.94,-1.1 22.11,-0.93Q22.28,-0.76 22.52,-0.76L23.33,-0.76L23.33,0L22.51,0ZM20.1,-4.52L20.1,-5.29L23.33,-5.29L23.33,-4.52L20.1,-4.52ZM26.65,0.11Q25.87,0.11 25.27,-0.24Q24.67,-0.58 24.34,-1.2Q24,-1.81 24,-2.62L24,-2.73Q24,-3.5 24.31,-4.1Q24.62,-4.7 25.18,-5.05Q25.74,-5.4 26.48,-5.4Q27.24,-5.4 27.78,-5.03Q28.31,-4.65 28.57,-3.98Q28.83,-3.3 28.72,-2.38L24.64,-2.38L24.64,-3.1L28.24,-3.1L27.85,-2.72Q27.93,-3.31 27.77,-3.74Q27.61,-4.17 27.27,-4.4Q26.94,-4.63 26.48,-4.63Q25.98,-4.63 25.62,-4.39Q25.27,-4.15 25.07,-3.72Q24.88,-3.3 24.88,-2.73L24.88,-2.53Q24.88,-2.03 25.1,-1.62Q25.32,-1.2 25.73,-0.95Q26.14,-0.7 26.69,-0.7Q27.1,-0.7 27.43,-0.8Q27.75,-0.9 27.99,-1.12L28.5,-0.57Q28.19,-0.24 27.71,-0.07Q27.24,0.11 26.65,0.11Z" transform="translate(12,58.25)" fill="rgb(78,94,116)" stroke-width="1px"/></g></g><g><g><path d="M0.96,0L0.96,-7.7L3.44,-7.7Q4.22,-7.7 4.8,-7.44Q5.38,-7.18 5.7,-6.67Q6.02,-6.15 6.02,-5.4Q6.02,-4.61 5.7,-4.1Q5.38,-3.58 4.8,-3.34Q4.22,-3.09 3.44,-3.09L1.39,-3.09L1.39,-3.89L3.4,-3.89Q4.15,-3.89 4.6,-4.25Q5.06,-4.61 5.06,-5.38Q5.06,-6.11 4.6,-6.5Q4.15,-6.89 3.4,-6.89L1.5,-6.89L1.9,-7.26L1.9,0L0.96,0ZM5.16,0L2.98,-3.5L4.03,-3.5L6.25,0L5.16,0ZM9.51,0.11Q8.73,0.11 8.13,-0.24Q7.53,-0.58 7.2,-1.2Q6.86,-1.81 6.86,-2.62L6.86,-2.73Q6.86,-3.5 7.17,-4.1Q7.48,-4.7 8.04,-5.05Q8.6,-5.4 9.34,-5.4Q10.1,-5.4 10.64,-5.03Q11.18,-4.65 11.43,-3.98Q11.69,-3.3 11.58,-2.38L7.5,-2.38L7.5,-3.1L11.1,-3.1L10.71,-2.72Q10.79,-3.31 10.63,-3.74Q10.47,-4.17 10.14,-4.4Q9.8,-4.63 9.34,-4.63Q8.84,-4.63 8.49,-4.39Q8.13,-4.15 7.94,-3.72Q7.74,-3.3 7.74,-2.73L7.74,-2.53Q7.74,-2.03 7.96,-1.62Q8.18,-1.2 8.59,-0.95Q9,-0.7 9.55,-0.7Q9.97,-0.7 10.29,-0.8Q10.62,-0.9 10.86,-1.12L11.36,-0.57Q11.06,-0.24 10.58,-0.07Q10.1,0.11 9.51,0.11ZM16.05,0L16.03,-1.67L15.93,-1.97L15.93,-3.39Q15.93,-4.04 15.59,-4.32Q15.26,-4.6 14.68,-4.6Q14.26,-4.6 13.81,-4.44Q13.36,-4.28 13.05,-3.95L12.63,-4.58Q12.98,-4.98 13.55,-5.19Q14.12,-5.4 14.73,-5.4Q15.36,-5.4 15.82,-5.18Q16.29,-4.96 16.55,-4.53Q16.81,-4.09 16.81,-3.43L16.81,-1.74Q16.81,-1.3 16.82,-0.86Q16.83,-0.43 16.84,0L16.05,0ZM14.43,0.11Q13.53,0.11 12.99,-0.33Q12.44,-0.77 12.44,-1.47Q12.44,-1.94 12.72,-2.3Q12.99,-2.66 13.47,-2.88Q13.95,-3.09 14.54,-3.09Q15.5,-3.09 16.01,-2.66Q16.52,-2.23 16.52,-1.54L16.36,-1.54Q16.36,-0.76 15.85,-0.32Q15.35,0.11 14.43,0.11ZM14.66,-0.56Q15.27,-0.56 15.6,-0.81Q15.94,-1.07 15.94,-1.47Q15.94,-1.88 15.6,-2.13Q15.27,-2.38 14.65,-2.38Q14.05,-2.38 13.69,-2.13Q13.34,-1.88 13.34,-1.47Q13.34,-1.08 13.7,-0.82Q14.06,-0.56 14.66,-0.56ZM20.76,0.11Q19.97,0.11 19.36,-0.23Q18.75,-0.58 18.4,-1.18Q18.05,-1.79 18.05,-2.58L18.05,-2.72Q18.05,-3.51 18.4,-4.11Q18.76,-4.72 19.37,-5.06Q19.98,-5.4 20.76,-5.4Q21.34,-5.4 21.82,-5.19Q22.3,-4.98 22.63,-4.59L22.08,-4.04Q21.83,-4.3 21.5,-4.44Q21.16,-4.58 20.76,-4.58Q20.24,-4.58 19.82,-4.35Q19.41,-4.11 19.17,-3.69Q18.94,-3.27 18.94,-2.72L18.94,-2.58Q18.94,-2.02 19.18,-1.6Q19.41,-1.18 19.83,-0.95Q20.24,-0.71 20.77,-0.71Q21.16,-0.71 21.5,-0.84Q21.83,-0.97 22.1,-1.25L22.64,-0.7Q22.32,-0.32 21.83,-0.1Q21.34,0.11 20.76,0.11ZM23.78,0L23.78,-8.03L24.64,-8.03L24.64,-3.86L24.4,-3.86Q24.52,-4.32 24.74,-4.61Q24.97,-4.91 25.25,-5.08Q25.53,-5.26 25.83,-5.33Q26.13,-5.4 26.39,-5.4Q27.28,-5.4 27.83,-4.83Q28.39,-4.25 28.39,-3.11L28.39,0L27.5,0L27.5,-2.98Q27.5,-3.83 27.12,-4.21Q26.75,-4.58 26.16,-4.58Q25.75,-4.58 25.42,-4.4Q25.08,-4.22 24.88,-3.86Q24.67,-3.5 24.67,-2.97L24.67,0L23.78,0Z" transform="translate(124,58.25)" fill="rgb(78,94,116)" stroke-width="1px"/></g></g><g><g><path d="M0.96,0L0.96,-7.7L3.55,-7.7Q4.36,-7.7 5.05,-7.43Q5.73,-7.16 6.24,-6.66Q6.75,-6.16 7.03,-5.48Q7.31,-4.8 7.31,-3.98L7.31,-3.85Q7.31,-3 7.03,-2.3Q6.74,-1.59 6.23,-1.08Q5.72,-0.56 5.03,-0.28Q4.35,0 3.55,0L0.96,0ZM1.9,-0.49L1.5,-0.88L3.49,-0.88Q4.31,-0.88 4.96,-1.26Q5.61,-1.64 5.99,-2.31Q6.36,-2.98 6.36,-3.85L6.36,-3.98Q6.36,-4.83 5.99,-5.47Q5.62,-6.1 4.97,-6.46Q4.32,-6.82 3.49,-6.82L1.5,-6.82L1.9,-7.21L1.9,-0.49ZM11.79,0L11.77,-1.67L11.67,-1.97L11.67,-3.39Q11.67,-4.04 11.34,-4.32Q11,-4.6 10.43,-4.6Q10,-4.6 9.55,-4.44Q9.11,-4.28 8.79,-3.95L8.37,-4.58Q8.72,-4.98 9.3,-5.19Q9.87,-5.4 10.47,-5.4Q11.1,-5.4 11.57,-5.18Q12.03,-4.96 12.29,-4.53Q12.55,-4.09 12.55,-3.43L12.55,-1.74Q12.55,-1.3 12.56,-0.86Q12.57,-0.43 12.58,0L11.79,0ZM10.17,0.11Q9.27,0.11 8.73,-0.33Q8.18,-0.77 8.18,-1.47Q8.18,-1.94 8.46,-2.3Q8.73,-2.66 9.21,-2.88Q9.69,-3.09 10.29,-3.09Q11.24,-3.09 11.75,-2.66Q12.26,-2.23 12.26,-1.54L12.1,-1.54Q12.1,-0.76 11.59,-0.32Q11.09,0.11 10.17,0.11ZM10.41,-0.56Q11.01,-0.56 11.35,-0.81Q11.68,-1.07 11.68,-1.47Q11.68,-1.88 11.35,-2.13Q11.01,-2.38 10.4,-2.38Q9.79,-2.38 9.44,-2.13Q9.09,-1.88 9.09,-1.47Q9.09,-1.08 9.44,-0.82Q9.8,-0.56 10.41,-0.56ZM14.15,0L14.15,-5.29L15.01,-5.29L15.01,-3.94L14.88,-3.95Q14.96,-4.49 15.18,-4.78Q15.41,-5.08 15.74,-5.2Q16.08,-5.31 16.47,-5.31L16.92,-5.31L16.92,-4.43L16.4,-4.43Q15.76,-4.43 15.4,-4.12Q15.04,-3.8 15.04,-3.14L15.04,0L14.15,0ZM18.44,-1.17L18.38,-2.28L21.3,-5.29L22.4,-5.29L18.44,-1.17ZM17.96,0L17.96,-8.03L18.85,-8.03L18.85,0L17.96,0ZM21.46,0L19.47,-2.95L20.14,-3.55L22.56,0L21.46,0ZM27.32,0Q26.68,0 26.29,-0.37Q25.89,-0.73 25.89,-1.35L25.89,-7.66L26.29,-7.27L24.92,-7.27L24.92,-8.03L26.78,-8.03L26.78,-1.34Q26.78,-1.09 26.95,-0.92Q27.12,-0.75 27.37,-0.75L27.87,-0.75L27.87,0L27.32,0ZM29.18,0L29.18,-4.92L29.58,-4.52L28.15,-4.52L28.15,-5.29L30.07,-5.29L30.07,0L29.18,0ZM29.13,-6.45L29.13,-7.73L30.12,-7.73L30.12,-6.45L29.13,-6.45ZM32.11,0L32.11,-6.62Q32.11,-7.27 32.52,-7.65Q32.93,-8.03 33.6,-8.03L34.47,-8.03L34.47,-7.28L33.59,-7.28Q33.33,-7.28 33.17,-7.11Q33,-6.94 33,-6.69L33,0L32.11,0ZM31.14,-4.52L31.14,-5.29L34.47,-5.29L34.47,-4.52L31.14,-4.52ZM37.29,0Q37.02,0 36.75,-0.08Q36.49,-0.15 36.28,-0.32Q36.08,-0.49 35.95,-0.76Q35.83,-1.02 35.83,-1.41L35.83,-6.6L36.71,-6.6L36.71,-1.35Q36.71,-1.1 36.88,-0.93Q37.05,-0.76 37.3,-0.76L38.1,-0.76L38.1,0L37.29,0ZM34.87,-4.52L34.87,-5.29L38.1,-5.29L38.1,-4.52L34.87,-4.52Z" transform="translate(12,84.25)" fill="rgb(78,94,116)" stroke-width="1px"/></g></g><g><g><path d="M0.93,0L0.93,-6.48Q0.93,-7 1.27,-7.35Q1.62,-7.7 2.15,-7.7L5.64,-7.7L5.64,-6.84L2.45,-6.84Q2.2,-6.84 2.04,-6.67Q1.87,-6.5 1.87,-6.26L1.87,0L0.93,0ZM1.42,-3.19L1.42,-4.04L5.4,-4.04L5.4,-3.19L1.42,-3.19ZM8.96,0.11Q8.2,0.11 7.6,-0.24Q7,-0.59 6.66,-1.2Q6.32,-1.82 6.32,-2.62L6.32,-2.72Q6.32,-3.5 6.66,-4.11Q7,-4.72 7.6,-5.06Q8.2,-5.4 8.96,-5.4Q9.71,-5.4 10.31,-5.06Q10.9,-4.72 11.24,-4.12Q11.58,-3.52 11.58,-2.73L11.58,-2.62Q11.58,-1.82 11.24,-1.2Q10.9,-0.59 10.31,-0.24Q9.71,0.11 8.96,0.11ZM8.96,-0.68Q9.47,-0.68 9.86,-0.93Q10.25,-1.18 10.47,-1.61Q10.69,-2.05 10.69,-2.62L10.69,-2.73Q10.69,-3.29 10.47,-3.71Q10.25,-4.13 9.86,-4.37Q9.47,-4.61 8.96,-4.61Q8.45,-4.61 8.06,-4.36Q7.66,-4.12 7.44,-3.7Q7.21,-3.27 7.21,-2.72L7.21,-2.62Q7.21,-2.05 7.44,-1.61Q7.66,-1.18 8.06,-0.93Q8.45,-0.68 8.96,-0.68ZM15.24,0.11Q14.45,0.11 13.84,-0.23Q13.23,-0.58 12.88,-1.18Q12.52,-1.79 12.52,-2.58L12.52,-2.72Q12.52,-3.51 12.88,-4.11Q13.23,-4.72 13.84,-5.06Q14.46,-5.4 15.24,-5.4Q15.82,-5.4 16.3,-5.19Q16.78,-4.98 17.1,-4.59L16.56,-4.04Q16.31,-4.3 15.97,-4.44Q15.64,-4.58 15.24,-4.58Q14.71,-4.58 14.3,-4.35Q13.89,-4.11 13.65,-3.69Q13.41,-3.27 13.41,-2.72L13.41,-2.58Q13.41,-2.02 13.65,-1.6Q13.89,-1.18 14.31,-0.95Q14.72,-0.71 15.25,-0.71Q15.64,-0.71 15.98,-0.84Q16.31,-0.97 16.58,-1.25L17.12,-0.7Q16.79,-0.32 16.31,-0.1Q15.82,0.11 15.24,0.11ZM20.23,0.11Q19.65,0.11 19.18,-0.12Q18.72,-0.35 18.45,-0.83Q18.19,-1.31 18.19,-2.07L18.19,-5.29L19.07,-5.29L19.07,-2.23Q19.07,-1.66 19.24,-1.33Q19.42,-0.99 19.72,-0.85Q20.02,-0.71 20.4,-0.71Q20.81,-0.71 21.14,-0.88Q21.47,-1.06 21.67,-1.41Q21.87,-1.77 21.87,-2.29L21.87,-5.29L22.74,-5.29L22.74,0L21.95,0L21.95,-1.43L22.22,-1.43Q22.1,-0.98 21.88,-0.68Q21.65,-0.38 21.37,-0.21Q21.08,-0.04 20.79,0.04Q20.49,0.11 20.23,0.11ZM25.87,0.1Q25.28,0.1 24.77,-0.08Q24.26,-0.26 23.93,-0.55L24.33,-1.16Q24.63,-0.92 25.04,-0.76Q25.45,-0.6 25.87,-0.6Q26.36,-0.6 26.66,-0.83Q26.97,-1.05 26.97,-1.42Q26.97,-1.73 26.76,-1.9Q26.56,-2.07 26.23,-2.16Q25.91,-2.26 25.55,-2.35Q25.19,-2.44 24.86,-2.6Q24.54,-2.75 24.34,-3.04Q24.13,-3.32 24.13,-3.81Q24.13,-4.52 24.65,-4.96Q25.18,-5.4 26.06,-5.4Q26.56,-5.4 27,-5.25Q27.44,-5.11 27.78,-4.86L27.37,-4.25Q27.1,-4.46 26.76,-4.58Q26.42,-4.7 26.05,-4.7Q25.57,-4.7 25.28,-4.47Q24.98,-4.24 24.98,-3.89Q24.98,-3.58 25.19,-3.41Q25.4,-3.24 25.72,-3.15Q26.05,-3.05 26.42,-2.95Q26.78,-2.86 27.11,-2.7Q27.44,-2.54 27.65,-2.25Q27.86,-1.96 27.86,-1.46Q27.86,-1 27.6,-0.65Q27.34,-0.3 26.9,-0.1Q26.45,0.1 25.87,0.1Z" transform="translate(124,84.25)" fill="rgb(78,94,116)" stroke-width="1px"/></g></g></g><g><g><rect x="12" y="12.25" width="16" height="16" rx="4" ry="4" fill="rgb(82,131,213)"/><image href="data:image/svg+xml,%3Csvg xmlns='http://www.w3.org/2000/svg' viewBox='0 0 24 24' fill='none' stroke='%23ffffff' stroke-width='3.5' stroke-linecap='round' stroke-linejoin='round'%3E%3Cpolyline points='20 6 9 17 4 12'/%3E%3C/svg%3E" x="14.5" y="14.75" width="11" height="11" preserveAspectRatio="none" clip-path="url(#fcbgclip-2)"/><rect x="12.5" y="12.75" width="15" height="15" rx="3.5" ry="3.5" fill="none" stroke="rgb(82,131,213)" stroke-width="1"/></g><g><g><svg viewBox="0 0 24 24" fill="none" stroke="currentColor" stroke-width="2" stroke-linecap="round" stroke-linejoin="round" class="hdr-icon" aria-hidden="true" color="rgb(82, 131, 213)" x="36" y="13.25" width="14" height="14"><circle cx="12" cy="12" r="4"/><path d="M12 2v2"/><path d="M12 20v2"/><path d="m4.93 4.93 1.41 1.41"/><path d="m17.66 17.66 1.41 1.41"/><path d="M2 12h2"/><path d="M20 12h2"/><path d="m6.34 17.66-1.41 1.41"/><path d="m19.07 4.93-1.41 1.41"/></svg></g><g><path d="M5.86,0L5.86,-7.7L7.21,-7.7L7.21,0L5.86,0ZM0.86,0L0.86,-7.7L2.22,-7.7L2.22,0L0.86,0ZM1.57,-3.36L1.57,-4.59L6.38,-4.59L6.38,-3.36L1.57,-3.36ZM9.38,0L9.38,-7.7L12.15,-7.7Q12.97,-7.7 13.66,-7.43Q14.36,-7.16 14.88,-6.65Q15.39,-6.15 15.68,-5.46Q15.97,-4.77 15.97,-3.94L15.97,-3.82Q15.97,-2.98 15.67,-2.28Q15.38,-1.58 14.86,-1.07Q14.34,-0.56 13.65,-0.28Q12.95,0 12.15,0L9.38,0ZM10.73,-0.69L10.17,-1.26L12.04,-1.26Q12.78,-1.26 13.36,-1.58Q13.93,-1.91 14.26,-2.49Q14.59,-3.06 14.59,-3.82L14.59,-3.94Q14.59,-4.69 14.26,-5.25Q13.94,-5.81 13.37,-6.12Q12.8,-6.44 12.04,-6.44L10.17,-6.44L10.73,-7.01L10.73,-0.69ZM17.74,0L17.74,-7.7L20.49,-7.7Q21.31,-7.7 21.91,-7.42Q22.52,-7.15 22.85,-6.61Q23.18,-6.07 23.18,-5.28Q23.18,-4.48 22.85,-3.93Q22.52,-3.39 21.91,-3.12Q21.31,-2.85 20.49,-2.85L18.36,-2.85L18.36,-3.98L20.43,-3.98Q21.05,-3.98 21.42,-4.31Q21.8,-4.64 21.8,-5.26Q21.8,-5.86 21.42,-6.21Q21.05,-6.56 20.43,-6.56L18.53,-6.56L19.09,-7.07L19.09,0L17.74,0ZM21.87,0L19.94,-3.43L21.41,-3.43L23.42,0L21.87,0ZM30.46,1.58L29.29,1.58Q28.44,0.54 27.99,-0.75Q27.54,-2.05 27.54,-3.37Q27.54,-4.72 28,-6.01Q28.45,-7.31 29.29,-8.36L30.47,-8.36Q29.97,-7.7 29.59,-6.9Q29.2,-6.1 28.99,-5.21Q28.77,-4.32 28.77,-3.37Q28.77,-2.43 28.99,-1.55Q29.2,-0.66 29.59,0.13Q29.97,0.92 30.46,1.58ZM31.74,0L31.74,-7.7L34.56,-7.7Q35.71,-7.7 36.38,-7.17Q37.04,-6.63 37.04,-5.73Q37.04,-5.26 36.85,-4.83Q36.66,-4.4 36.26,-4.12Q35.86,-3.84 35.21,-3.84L35.24,-4.05Q35.92,-4.05 36.38,-3.79Q36.85,-3.52 37.09,-3.09Q37.34,-2.65 37.34,-2.14Q37.34,-1.49 37.02,-1.01Q36.71,-0.53 36.13,-0.26Q35.54,0 34.72,0L31.74,0ZM33.07,-0.64L32.53,-1.11L34.5,-1.11Q35.2,-1.11 35.57,-1.43Q35.94,-1.74 35.94,-2.26Q35.94,-2.58 35.78,-2.84Q35.63,-3.1 35.34,-3.26Q35.05,-3.41 34.63,-3.41L32.62,-3.41L32.62,-4.48L34.45,-4.48Q35.03,-4.48 35.36,-4.77Q35.68,-5.06 35.68,-5.56Q35.68,-6.03 35.34,-6.31Q35,-6.59 34.4,-6.59L32.53,-6.59L33.07,-7.06L33.07,-0.64ZM39.1,0L39.1,-7.7L41.86,-7.7Q42.67,-7.7 43.28,-7.42Q43.88,-7.15 44.21,-6.61Q44.55,-6.07 44.55,-5.28Q44.55,-4.48 44.21,-3.93Q43.88,-3.39 43.28,-3.12Q42.67,-2.85 41.86,-2.85L39.72,-2.85L39.72,-3.98L41.79,-3.98Q42.41,-3.98 42.79,-4.31Q43.16,-4.64 43.16,-5.26Q43.16,-5.86 42.79,-6.21Q42.41,-6.56 41.79,-6.56L39.89,-6.56L40.45,-7.07L40.45,0L39.1,0ZM43.23,0L41.3,-3.43L42.77,-3.43L44.78,0L43.23,0ZM47.3,-0.42L47.3,-7.28L48.66,-7.28L48.66,-0.42L47.3,-0.42ZM46.01,-6.47L46.01,-7.7L49.95,-7.7L49.95,-6.47L46.01,-6.47ZM46.01,0L46.01,-1.23L49.95,-1.23L49.95,0L46.01,0ZM55.04,0.16Q53.89,0.16 53.01,-0.34Q52.13,-0.84 51.63,-1.73Q51.13,-2.62 51.13,-3.78L51.13,-3.91Q51.13,-5.08 51.64,-5.97Q52.14,-6.86 53.04,-7.36Q53.94,-7.86 55.1,-7.86Q55.92,-7.86 56.6,-7.58Q57.27,-7.3 57.79,-6.8L56.86,-5.85Q56.5,-6.24 56.06,-6.41Q55.61,-6.58 55.12,-6.58Q54.36,-6.58 53.77,-6.24Q53.18,-5.89 52.85,-5.29Q52.52,-4.69 52.52,-3.91L52.52,-3.78Q52.52,-3 52.85,-2.39Q53.17,-1.79 53.75,-1.45Q54.33,-1.1 55.07,-1.1Q55.59,-1.1 56,-1.29Q56.42,-1.47 56.7,-1.79Q56.98,-2.11 57.11,-2.55Q57.23,-2.98 57.16,-3.47L57.74,-3.1L55.34,-3.1L55.34,-4.21L58.5,-4.21Q58.61,-3.23 58.42,-2.43Q58.22,-1.64 57.76,-1.05Q57.3,-0.47 56.61,-0.15Q55.92,0.16 55.04,0.16ZM65.15,0L65.15,-7.7L66.5,-7.7L66.5,0L65.15,0ZM60.15,0L60.15,-7.7L61.51,-7.7L61.51,0L60.15,0ZM60.86,-3.36L60.86,-4.59L65.67,-4.59L65.67,-3.36L60.86,-3.36ZM70.15,0L70.15,-7.13L71.51,-7.13L71.51,0L70.15,0ZM67.95,-6.47L67.95,-7.7L73.73,-7.7L73.73,-6.47L67.95,-6.47ZM81.27,0.15Q80.44,0.15 79.72,-0.14Q79,-0.42 78.46,-0.95Q77.91,-1.47 77.61,-2.19Q77.3,-2.91 77.3,-3.78L77.3,-3.92Q77.3,-4.79 77.61,-5.51Q77.91,-6.23 78.46,-6.75Q79,-7.28 79.72,-7.56Q80.44,-7.85 81.27,-7.85Q82.04,-7.85 82.67,-7.61Q83.31,-7.37 83.81,-6.93L82.95,-5.91Q82.61,-6.21 82.19,-6.37Q81.77,-6.53 81.27,-6.53Q80.53,-6.53 79.94,-6.2Q79.35,-5.87 79.02,-5.28Q78.69,-4.7 78.69,-3.92L78.69,-3.78Q78.69,-3 79.02,-2.42Q79.35,-1.83 79.94,-1.5Q80.53,-1.17 81.27,-1.17Q81.78,-1.17 82.21,-1.33Q82.64,-1.5 82.99,-1.83L83.85,-0.82Q83.34,-0.36 82.69,-0.11Q82.03,0.15 81.27,0.15ZM88.51,0.15Q87.69,0.15 87,-0.14Q86.3,-0.42 85.79,-0.95Q85.28,-1.47 85,-2.2Q84.71,-2.93 84.71,-3.82L84.71,-3.91Q84.71,-4.78 85,-5.51Q85.28,-6.23 85.79,-6.76Q86.3,-7.28 87,-7.56Q87.69,-7.85 88.51,-7.85Q89.32,-7.85 90.01,-7.56Q90.71,-7.28 91.22,-6.76Q91.72,-6.23 92.01,-5.51Q92.29,-4.78 92.29,-3.91L92.29,-3.82Q92.29,-2.93 92.01,-2.2Q91.72,-1.47 91.22,-0.95Q90.71,-0.42 90.01,-0.14Q89.32,0.15 88.51,0.15ZM88.51,-1.17Q89.21,-1.17 89.75,-1.49Q90.29,-1.81 90.6,-2.4Q90.91,-3 90.91,-3.82L90.91,-3.91Q90.91,-4.71 90.6,-5.3Q90.29,-5.89 89.75,-6.21Q89.21,-6.53 88.51,-6.53Q87.81,-6.53 87.26,-6.21Q86.72,-5.89 86.41,-5.3Q86.1,-4.71 86.1,-3.91L86.1,-3.82Q86.1,-3 86.41,-2.4Q86.72,-1.81 87.26,-1.49Q87.81,-1.17 88.51,-1.17ZM95.31,0Q94.76,0 94.39,-0.36Q94.03,-0.73 94.03,-1.28L94.03,-7.7L95.38,-7.7L95.38,-1.67Q95.38,-1.5 95.5,-1.39Q95.62,-1.27 95.78,-1.27L98.88,-1.27L98.88,0L95.31,0ZM103.32,0.15Q102.51,0.15 101.81,-0.14Q101.12,-0.42 100.61,-0.95Q100.1,-1.47 99.81,-2.2Q99.53,-2.93 99.53,-3.82L99.53,-3.91Q99.53,-4.78 99.81,-5.51Q100.1,-6.23 100.61,-6.76Q101.12,-7.28 101.81,-7.56Q102.51,-7.85 103.32,-7.85Q104.14,-7.85 104.83,-7.56Q105.52,-7.28 106.03,-6.76Q106.54,-6.23 106.82,-5.51Q107.11,-4.78 107.11,-3.91L107.11,-3.82Q107.11,-2.93 106.82,-2.2Q106.54,-1.47 106.03,-0.95Q105.52,-0.42 104.83,-0.14Q104.14,0.15 103.32,0.15ZM103.32,-1.17Q104.02,-1.17 104.56,-1.49Q105.11,-1.81 105.41,-2.4Q105.72,-3 105.72,-3.82L105.72,-3.91Q105.72,-4.71 105.41,-5.3Q105.11,-5.89 104.56,-6.21Q104.02,-6.53 103.32,-6.53Q102.63,-6.53 102.08,-6.21Q101.53,-5.89 101.22,-5.3Q100.91,-4.71 100.91,-3.91L100.91,-3.82Q100.91,-3 101.22,-2.4Q101.53,-1.81 102.08,-1.49Q102.63,-1.17 103.32,-1.17ZM111.79,0.15Q110.89,0.15 110.22,-0.16Q109.55,-0.47 109.18,-1.1Q108.81,-1.73 108.81,-2.67L108.81,-7.7L110.16,-7.7L110.16,-2.77Q110.16,-1.93 110.6,-1.52Q111.05,-1.1 111.79,-1.1Q112.54,-1.1 112.98,-1.52Q113.43,-1.93 113.43,-2.77L113.43,-7.7L114.78,-7.7L114.78,-2.67Q114.78,-1.73 114.41,-1.1Q114.04,-0.47 113.37,-0.16Q112.7,0.15 111.79,0.15ZM116.88,0L116.88,-7.7L119.64,-7.7Q120.45,-7.7 121.06,-7.42Q121.66,-7.15 121.99,-6.61Q122.33,-6.07 122.33,-5.28Q122.33,-4.48 121.99,-3.93Q121.66,-3.39 121.06,-3.12Q120.45,-2.85 119.64,-2.85L117.5,-2.85L117.5,-3.98L119.57,-3.98Q120.19,-3.98 120.57,-4.31Q120.95,-4.64 120.95,-5.26Q120.95,-5.86 120.57,-6.21Q120.19,-6.56 119.57,-6.56L117.67,-6.56L118.23,-7.07L118.23,0L116.88,0ZM121.01,0L119.08,-3.43L120.55,-3.43L122.56,0L121.01,0ZM126.26,0.15Q125.4,0.15 124.76,-0.17Q124.12,-0.49 123.67,-1.01L124.51,-1.85Q124.96,-1.39 125.39,-1.19Q125.82,-0.99 126.31,-0.99Q126.95,-0.99 127.32,-1.29Q127.68,-1.6 127.68,-2.08Q127.68,-2.46 127.48,-2.69Q127.27,-2.93 126.93,-3.07Q126.58,-3.22 126.17,-3.34Q125.76,-3.46 125.36,-3.6Q124.95,-3.74 124.61,-3.98Q124.26,-4.21 124.06,-4.58Q123.85,-4.95 123.85,-5.52Q123.85,-6.23 124.18,-6.75Q124.51,-7.28 125.12,-7.56Q125.73,-7.85 126.53,-7.85Q127.28,-7.85 127.88,-7.59Q128.48,-7.33 128.87,-6.89L128.01,-6.03Q127.68,-6.37 127.32,-6.54Q126.97,-6.71 126.53,-6.71Q125.92,-6.71 125.56,-6.42Q125.19,-6.13 125.19,-5.64Q125.19,-5.29 125.4,-5.07Q125.61,-4.85 125.95,-4.73Q126.3,-4.6 126.71,-4.49Q127.13,-4.38 127.54,-4.24Q127.96,-4.1 128.3,-3.87Q128.64,-3.64 128.86,-3.26Q129.07,-2.87 129.07,-2.28Q129.07,-1.54 128.71,-1Q128.36,-0.45 127.72,-0.15Q127.09,0.15 126.26,0.15ZM129.83,-8.36L131,-8.36Q131.85,-7.31 132.3,-6.02Q132.74,-4.73 132.74,-3.4Q132.74,-2.06 132.29,-0.76Q131.84,0.54 130.99,1.58L129.82,1.58Q130.32,0.91 130.7,0.12Q131.08,-0.67 131.3,-1.56Q131.51,-2.45 131.51,-3.4Q131.51,-4.35 131.3,-5.23Q131.08,-6.11 130.7,-6.91Q130.32,-7.7 129.83,-8.36Z" transform="translate(57,24)" fill="rgb(78,94,116)" stroke-width="1px"/></g></g><g opacity="0.5500"><g><svg viewBox="0 0 24 24" width="13" height="13" fill="none" stroke="currentColor" stroke-width="2.2" stroke-linecap="round" stroke-linejoin="round" aria-hidden="true" color="rgb(78, 94, 116)" x="204.1875" y="13.75"><circle cx="12" cy="12" r="10"/><path d="M12 16v-4"/><path d="M12 8h.01"/></svg></g></g></g><g><rect x="70" y="52.5" width="42" height="4" rx="2" ry="2" fill="rgba(78,94,116,0.75)"/></g><g><rect x="70" y="52.5" width="15.75" height="4" rx="2" ry="2" fill="rgb(82,131,213)"/></g><g><rect x="78.75" y="48.5" width="14" height="14" rx="7" ry="7" fill="rgba(0,0,0,0.25)" filter="url(#shadow-3)"/><rect x="78.75" y="47.5" width="14" height="14" rx="7" ry="7" fill="rgb(82,131,213)"/></g><g><rect x="182" y="52.5" width="42" height="4" rx="2" ry="2" fill="rgba(78,94,116,0.75)"/></g><g><rect x="182" y="52.5" width="18.890625" height="4" rx="2" ry="2" fill="rgb(82,131,213)"/></g><g><rect x="193.890625" y="48.5" width="14" height="14" rx="7" ry="7" fill="rgba(0,0,0,0.25)" filter="url(#shadow-4)"/><rect x="193.890625" y="47.5" width="14" height="14" rx="7" ry="7" fill="rgb(82,131,213)"/></g><g><rect x="70" y="78.5" width="42" height="4" rx="2" ry="2" fill="rgba(78,94,116,0.75)"/></g><g><rect x="63" y="74.5" width="14" height="14" rx="7" ry="7" fill="rgba(0,0,0,0.25)" filter="url(#shadow-5)"/><rect x="63" y="73.5" width="14" height="14" rx="7" ry="7" fill="rgb(82,131,213)"/></g><g><rect x="182" y="78.5" width="42" height="4" rx="2" ry="2" fill="rgba(78,94,116,0.75)"/></g><g><rect x="182" y="78.5" width="16.796875" height="4" rx="2" ry="2" fill="rgb(82,131,213)"/></g><g><rect x="191.796875" y="74.5" width="14" height="14" rx="7" ry="7" fill="rgba(0,0,0,0.25)" filter="url(#shadow-6)"/><rect x="191.796875" y="73.5" width="14" height="14" rx="7" ry="7" fill="rgb(82,131,213)"/></g></g></g></svg>