<?xml version="1.0" standalone="no"?>
<svg xmlns="http://www.w3.org/2000/svg" width="280.359375" height="269.5" viewBox="0 0 280.359375 269.5" xmlns:c2pa="http://c2pa.org/manifest"><metadata><c2pa:manifest>AAAIAWp1bWIAAAAeanVtZGMycGEAEQAQgAAAqgA4m3EDYzJwYQAAAAfbanVtYgAAAEdqdW1kYzJtYQARABCAAACqADibcQN1cm46dXVpZDpmMTk5OTM3MC1jNjllLTQ4YzktYWQwOS05YzE0OTRjOWZhYjkAAAADImp1bWIAAAApanVtZGMyYXMAEQAQgAAAqgA4m3EDYzJwYS5hc3NlcnRpb25zAAAAAO5qdW1iAAAAKWp1bWRjYm9yABEAEIAAAKoAOJtxA2MycGEuYWN0aW9ucy52MgAAAAC9Y2JvcqFnYWN0aW9uc4GkZmFjdGlvbmxjMnBhLmNyZWF0ZWRxZGlnaXRhbFNvdXJjZVR5cGV4Pmh0dHA6Ly9jdi5pcHRjLm9yZy9uZXdzY29kZXMvZGlnaXRhbHNvdXJjZXR5cGUvZGlnaXRhbENyZWF0aW9ubXNvZnR3YXJlQWdlbnSiZG5hbWVlTG9sbHlndmVyc2lvbmcxLjExMi4wZHdoZW50MjAyNi0wOC0xMFQwNDowMzo0NVoAAACranVtYgAAAChqdW1kY2JvcgARABCAAACqADibcQNjMnBhLmhhc2guZGF0YQAAAAB7Y2JvcqVqZXhjbHVzaW9uc4GiZXN0YXJ0GM5mbGVuZ3RoGQqsZG5hbWVuanVtYmYgbWFuaWZlc3RjYWxnZnNoYTI1NmRoYXNoWCA95Za9Zze30ZHT1Epn9XA5w2u7WEep4XeGiJbYPeVNmWNwYWRIAAAAAAAAAAAAAAFYanVtYgAAACxqdW1kY2JvcgARABCAAACqADibcQN0b29scy5sb2xseS5leHBvcnQAAAABJGNib3KoZ3N1cmZhY2VkZG9jc2ZlbmdpbmVtbm9kZSB2MjQuMTkuMGJvc2ZkYXJ3aW5mZm9ybWF0Y3N2Z2R0b29sblVSTCBTY3JlZW5zaG90ZGRhdGV4GDIwMjYtMDgtMTBUMDQ6MDM6NDUuMzYxWmpkaW1lbnNpb25zbjE0NDAgw5cgOTAwIHB4ZmlucHV0c6ZjdXJsai8jL3Byb2ZpbGVmd2FpdE1zZDE2MDBnY3JvcFRvcHMwLjA4Njk2MTgwNTU1NTU1NTU1aWNyb3BSaWdodHMwLjEzMDEzMjM3ODQ3MjIyMjIzamNyb3BCb3R0b21yMC41NjAyNjA0MTY2NjY2NjY3aGNyb3BMZWZ0cjAuNjQxODQwMjc3Nzc3Nzc3NwAAAglqdW1iAAAAJ2p1bWRjMmNsABEAEIAAAKoAOJtxA2MycGEuY2xhaW0udjIAAAAB2mNib3KmaGRjOnRpdGxlblVSTCBTY3JlZW5zaG90amluc3RhbmNlSUR4LXVybjp1dWlkOjNkOGU3ZmI5LWU1YzQtNGM1MC1iY2U3LTc1Mzk1ZjExZWQyMHRjbGFpbV9nZW5lcmF0b3JfaW5mb6JkbmFtZWVMb2xseWd2ZXJzaW9uZzEuMTEyLjByY3JlYXRlZF9hc3NlcnRpb25zg6JjdXJseCpzZWxmI2p1bWJmPWMycGEuYXNzZXJ0aW9ucy9jMnBhLmFjdGlvbnMudjJkaGFzaFggcnItK28IWqsMxNGc/io0jgntwT4AeU85IFLrrue35uqiY3VybHgpc2VsZiNqdW1iZj1jMnBhLmFzc2VydGlvbnMvYzJwYS5oYXNoLmRhdGFkaGFzaFggvSRv6lwmEDz81dDG8UUy44mYdiiWA//IfCL8LTgGkoGiY3VybHgtc2VsZiNqdW1iZj1jMnBhLmFzc2VydGlvbnMvdG9vbHMubG9sbHkuZXhwb3J0ZGhhc2hYIKy+zg18v7w4InlYIY7i6LI5z3VdDmFpETRRb2XYE616aXNpZ25hdHVyZXgZc2VsZiNqdW1iZj1jMnBhLnNpZ25hdHVyZWNhbGdmc2hhMjU2AAACYWp1bWIAAAAoanVtZGMyY3MAEQAQgAAAqgA4m3EDYzJwYS5zaWduYXR1cmUAAAACMWNib3LShFkB4KIBJhghgVkB1zCCAdMwggF5oAMCAQICCVde4lm7oDyrIzAKBggqhkjOPQQDAjA1MQ4wDAYDVQQKDAVMb2xseTEjMCEGA1UEAwwaTG9sbHkgT24tRGV2aWNlIENyZWRlbnRpYWwwHhcNMjYwODEwMDQwMjQ1WhcNMjcwODEwMDQwMzQ1WjA1MQ4wDAYDVQQKDAVMb2xseTEjMCEGA1UEAwwaTG9sbHkgT24tRGV2aWNlIENyZWRlbnRpYWwwWTATBgcqhkjOPQIBBggqhkjOPQMBBwNCAATnqsUwwifUHuthH+xL8j3bO5XGlzwjlUAVuPRuWUClYQGUqquZSneKQ7yHoj3fgjueNcGbqhKpDokgoL6MeOM8o3IwcDAJBgNVHRMEAjAAMA4GA1UdDwEB/wQEAwIHgDATBgNVHSUEDDAKBggrBgEFBQcDBDAdBgNVHQ4EFgQUo4D9ldl9mXGXDUk8m+v2mkHYW+MwHwYDVR0jBBgwFoAUo4D9ldl9mXGXDUk8m+v2mkHYW+MwCgYIKoZIzj0EAwIDSAAwRQIgXWmIvt/hzGdwrConN83dEZae1/t15Sbr4QGeIS3IMm8CIQDJjLc+54jdriKSorKkeXQW9RI/6hbFKjSY8zD/LeOEQaD2WECT5dM6OPElL4LWmPPzYl+oWyMAyIyaeMQ1ih/K0A4o25Jjd30puD0CvhMhA5QD9nM2G6jYG8LFpCS3ardE3KUM</c2pa:manifest></metadata><defs><filter id="shadow-1" filterUnits="userSpaceOnUse" x="11.171875" y="-5.090624999999999" width="258" height="258"><feGaussianBlur in="SourceGraphic" stdDeviation="7"/></filter><clipPath id="fcovclip-2" clipPathUnits="userSpaceOnUse"><rect x="40.171875" y="21.109375" width="200" height="200" rx="100" ry="100" fill="#fff"/></clipPath><filter id="shadow-3" filterUnits="userSpaceOnUse" x="75.15625" y="235" width="45" height="45"><feGaussianBlur in="SourceGraphic" stdDeviation="1.5"/></filter></defs><g><g><rect x="0" y="0" width="280.359375" height="269.5" fill="rgb(255,255,255)"/><g><g><path d="M5.79,0L5.79,-7.62L7.13,-7.62L7.13,0L5.79,0ZM0.85,0L0.85,-7.62L2.2,-7.62L2.2,0L0.85,0ZM1.55,-3.32L1.55,-4.54L6.31,-4.54L6.31,-3.32L1.55,-3.32ZM10.48,0Q9.93,0 9.57,-0.36Q9.21,-0.72 9.21,-1.27L9.21,-6.35Q9.21,-6.9 9.57,-7.26Q9.93,-7.62 10.48,-7.62L14.19,-7.62L14.19,-6.4L10.93,-6.4Q10.76,-6.4 10.64,-6.29Q10.53,-6.17 10.53,-6L10.53,-1.61Q10.53,-1.45 10.64,-1.33Q10.76,-1.21 10.93,-1.21L14.19,-1.21L14.19,0L10.48,0ZM9.86,-3.24L9.86,-4.4L13.96,-4.4L13.96,-3.24L9.86,-3.24ZM15.24,0L18.03,-7.62L19.67,-7.62L22.45,0L21.08,0L18.76,-6.6L18.95,-6.6L16.61,0L15.24,0ZM16.46,-1.87L16.9,-3L20.82,-3L21.26,-1.87L16.46,-1.87ZM23.81,0L23.81,-7.62L26.55,-7.62Q27.36,-7.62 28.05,-7.35Q28.74,-7.08 29.25,-6.58Q29.76,-6.08 30.04,-5.4Q30.33,-4.72 30.33,-3.9L30.33,-3.78Q30.33,-2.94 30.04,-2.25Q29.75,-1.56 29.24,-1.06Q28.72,-0.55 28.04,-0.28Q27.35,0 26.55,0L23.81,0ZM25.15,-0.69L24.59,-1.25L26.45,-1.25Q27.18,-1.25 27.75,-1.57Q28.32,-1.89 28.64,-2.46Q28.96,-3.03 28.96,-3.78L28.96,-3.9Q28.96,-4.64 28.64,-5.19Q28.33,-5.75 27.76,-6.06Q27.19,-6.37 26.45,-6.37L24.59,-6.37L25.15,-6.93L25.15,-0.69ZM34.06,0.15Q33.21,0.15 32.58,-0.17Q31.95,-0.48 31.51,-1L32.34,-1.83Q32.78,-1.38 33.2,-1.18Q33.63,-0.98 34.11,-0.98Q34.75,-0.98 35.11,-1.28Q35.48,-1.58 35.48,-2.06Q35.48,-2.43 35.27,-2.66Q35.07,-2.89 34.73,-3.04Q34.39,-3.19 33.98,-3.3Q33.58,-3.42 33.17,-3.56Q32.77,-3.7 32.43,-3.93Q32.09,-4.16 31.89,-4.53Q31.68,-4.89 31.68,-5.46Q31.68,-6.16 32.01,-6.68Q32.34,-7.2 32.94,-7.48Q33.54,-7.76 34.33,-7.76Q35.07,-7.76 35.67,-7.51Q36.26,-7.25 36.65,-6.81L35.8,-5.96Q35.47,-6.3 35.12,-6.47Q34.77,-6.64 34.33,-6.64Q33.73,-6.64 33.37,-6.35Q33.01,-6.06 33.01,-5.58Q33.01,-5.23 33.22,-5.01Q33.43,-4.8 33.77,-4.68Q34.1,-4.55 34.52,-4.44Q34.93,-4.34 35.34,-4.2Q35.75,-4.06 36.09,-3.83Q36.43,-3.6 36.64,-3.22Q36.84,-2.84 36.84,-2.25Q36.84,-1.53 36.49,-0.99Q36.14,-0.45 35.52,-0.15Q34.89,0.15 34.06,0.15ZM43.46,0L43.46,-7.62L44.8,-7.62L44.8,0L43.46,0ZM38.52,0L38.52,-7.62L39.86,-7.62L39.86,0L38.52,0ZM39.22,-3.32L39.22,-4.54L43.97,-4.54L43.97,-3.32L39.22,-3.32ZM50.3,0.15Q49.49,0.15 48.81,-0.14Q48.12,-0.42 47.61,-0.94Q47.11,-1.46 46.83,-2.18Q46.55,-2.9 46.55,-3.78L46.55,-3.86Q46.55,-4.73 46.83,-5.45Q47.11,-6.17 47.61,-6.68Q48.12,-7.2 48.81,-7.48Q49.49,-7.76 50.3,-7.76Q51.1,-7.76 51.79,-7.48Q52.48,-7.2 52.98,-6.68Q53.48,-6.17 53.76,-5.45Q54.04,-4.73 54.04,-3.86L54.04,-3.78Q54.04,-2.9 53.76,-2.18Q53.48,-1.46 52.98,-0.94Q52.48,-0.42 51.79,-0.14Q51.1,0.15 50.3,0.15ZM50.3,-1.15Q50.99,-1.15 51.53,-1.47Q52.06,-1.79 52.37,-2.38Q52.67,-2.97 52.67,-3.78L52.67,-3.86Q52.67,-4.66 52.37,-5.24Q52.06,-5.83 51.53,-6.14Q50.99,-6.46 50.3,-6.46Q49.61,-6.46 49.07,-6.14Q48.53,-5.83 48.22,-5.24Q47.92,-4.66 47.92,-3.86L47.92,-3.78Q47.92,-2.97 48.22,-2.38Q48.53,-1.79 49.07,-1.47Q49.61,-1.15 50.3,-1.15ZM56.9,0L56.9,-7.05L58.25,-7.05L58.25,0L56.9,0ZM54.73,-6.4L54.73,-7.62L60.44,-7.62L60.44,-6.4L54.73,-6.4Z" transform="translate(109.66,12)" fill="rgb(78,94,116)" stroke-width="1px"/></g></g><g><g><g><g><svg viewBox="0 0 24 24" width="22" height="22" fill="none" stroke="currentColor" stroke-width="2" stroke-linecap="round" stroke-linejoin="round" aria-hidden="true" color="rgb(78, 94, 116)" x="0" y="245.5"><polygon points="11 5 6 9 2 9 2 15 6 15 11 19 11 5"/><line x1="22" x2="16" y1="9" y2="15"/><line x1="16" x2="22" y1="9" y2="15"/></svg></g></g><g><path d="M3.83,0.2Q2.7,0.2 1.87,-0.22Q1.04,-0.64 0.45,-1.32L1.54,-2.42Q2.13,-1.82 2.69,-1.56Q3.25,-1.29 3.89,-1.29Q4.74,-1.29 5.22,-1.69Q5.7,-2.09 5.7,-2.72Q5.7,-3.22 5.43,-3.52Q5.16,-3.83 4.71,-4.02Q4.26,-4.22 3.72,-4.37Q3.18,-4.52 2.65,-4.71Q2.12,-4.9 1.67,-5.2Q1.22,-5.51 0.95,-5.99Q0.68,-6.48 0.68,-7.22Q0.68,-8.16 1.11,-8.84Q1.55,-9.53 2.34,-9.9Q3.13,-10.28 4.19,-10.28Q5.16,-10.28 5.95,-9.93Q6.74,-9.59 7.25,-9.01L6.12,-7.89Q5.69,-8.34 5.22,-8.56Q4.76,-8.79 4.18,-8.79Q3.39,-8.79 2.91,-8.4Q2.43,-8.02 2.43,-7.39Q2.43,-6.92 2.71,-6.64Q2.98,-6.35 3.43,-6.19Q3.88,-6.02 4.43,-5.88Q4.97,-5.74 5.51,-5.55Q6.06,-5.37 6.51,-5.07Q6.96,-4.76 7.23,-4.26Q7.51,-3.76 7.51,-2.98Q7.51,-2.02 7.04,-1.31Q6.58,-0.59 5.75,-0.2Q4.92,0.2 3.83,0.2ZM12.16,0.14Q11.13,0.14 10.31,-0.31Q9.49,-0.77 9.02,-1.59Q8.54,-2.4 8.54,-3.46L8.54,-3.59Q8.54,-4.64 9.02,-5.44Q9.49,-6.25 10.31,-6.7Q11.13,-7.16 12.16,-7.16Q13.18,-7.16 14,-6.7Q14.81,-6.25 15.28,-5.45Q15.75,-4.65 15.75,-3.6L15.75,-3.46Q15.75,-2.4 15.28,-1.59Q14.81,-0.77 14,-0.31Q13.18,0.14 12.16,0.14ZM12.16,-1.32Q12.73,-1.32 13.17,-1.59Q13.6,-1.86 13.85,-2.35Q14.09,-2.83 14.09,-3.46L14.09,-3.6Q14.09,-4.22 13.85,-4.69Q13.6,-5.16 13.17,-5.43Q12.73,-5.69 12.16,-5.69Q11.59,-5.69 11.15,-5.42Q10.71,-5.15 10.46,-4.68Q10.21,-4.21 10.21,-3.59L10.21,-3.46Q10.21,-2.83 10.46,-2.35Q10.71,-1.86 11.15,-1.59Q11.59,-1.32 12.16,-1.32ZM19.85,0.14Q19.08,0.14 18.47,-0.17Q17.85,-0.48 17.5,-1.11Q17.15,-1.74 17.15,-2.69L17.15,-7.01L18.8,-7.01L18.8,-3.01Q18.8,-2.4 18.99,-2.05Q19.17,-1.69 19.49,-1.53Q19.81,-1.37 20.22,-1.37Q20.66,-1.37 21.01,-1.56Q21.35,-1.74 21.56,-2.13Q21.76,-2.51 21.76,-3.09L21.76,-7.01L23.42,-7.01L23.42,0L21.97,0L21.97,-1.93L22.45,-1.93Q22.3,-1.3 22,-0.89Q21.7,-0.48 21.33,-0.26Q20.95,-0.03 20.56,0.06Q20.17,0.14 19.85,0.14ZM25.34,0L25.34,-7.01L26.94,-7.01L26.94,-5.08L26.5,-5.08Q26.65,-5.72 26.94,-6.12Q27.23,-6.53 27.6,-6.75Q27.97,-6.98 28.35,-7.07Q28.74,-7.16 29.06,-7.16Q30.24,-7.16 30.96,-6.39Q31.67,-5.61 31.67,-4.17L31.67,0L30.01,0L30.01,-3.91Q30.01,-4.83 29.62,-5.23Q29.23,-5.64 28.59,-5.64Q28.15,-5.64 27.78,-5.44Q27.42,-5.24 27.21,-4.84Q27,-4.45 27,-3.87L27,0L25.34,0ZM36.39,0.14Q35.44,0.14 34.69,-0.3Q33.94,-0.75 33.51,-1.56Q33.08,-2.37 33.08,-3.45L33.08,-3.59Q33.08,-4.65 33.52,-5.45Q33.96,-6.26 34.71,-6.71Q35.46,-7.16 36.4,-7.16Q37.21,-7.16 37.84,-6.79Q38.48,-6.42 38.86,-5.79L38.53,-5.39L38.53,-10.51L40.19,-10.51L40.19,0L38.7,0L38.7,-1.77L39.01,-1.43Q38.6,-0.69 37.93,-0.27Q37.26,0.14 36.39,0.14ZM36.65,-1.31Q37.22,-1.31 37.67,-1.58Q38.12,-1.84 38.38,-2.33Q38.64,-2.83 38.64,-3.5Q38.64,-4.19 38.38,-4.68Q38.12,-5.17 37.67,-5.43Q37.22,-5.69 36.65,-5.69Q36.12,-5.69 35.68,-5.44Q35.25,-5.18 34.99,-4.71Q34.74,-4.24 34.74,-3.59L34.74,-3.45Q34.74,-2.79 34.99,-2.31Q35.25,-1.83 35.68,-1.57Q36.12,-1.31 36.65,-1.31ZM41.95,-5.07L41.95,-7.01L43.86,-7.01L43.86,-5.07L41.95,-5.07ZM41.95,0L41.95,-1.94L43.86,-1.94L43.86,0L41.95,0Z" transform="translate(31,260.69)" fill="rgb(3,7,17)" stroke-width="1px"/></g></g></g><g><rect x="40.171875" y="23.909375" width="200" height="200" rx="100" ry="100" fill="rgba(0,0,0,0.333)" filter="url(#shadow-1)"/><rect x="40.171875" y="21.109375" width="200" height="200" rx="100" ry="100" fill="rgb(241,245,249)"/><rect x="40.671875" y="21.609375" width="199" height="199" rx="99.5" ry="99.5" fill="none" stroke="rgb(203,213,226)" stroke-width="1"/></g><g clip-path="url(#fcovclip-2)"><g><path d="M3.85,0.15Q2.93,0.15 2.25,-0.16Q1.56,-0.48 1.19,-1.12Q0.81,-1.76 0.81,-2.71L0.81,-7.84L2.19,-7.84L2.19,-2.82Q2.19,-1.97 2.64,-1.54Q3.1,-1.12 3.85,-1.12Q4.61,-1.12 5.07,-1.54Q5.52,-1.97 5.52,-2.82L5.52,-7.84L6.9,-7.84L6.9,-2.71Q6.9,-1.76 6.52,-1.12Q6.14,-0.48 5.46,-0.16Q4.78,0.15 3.85,0.15ZM9.15,0L9.15,-7.84L11.78,-7.84Q12.61,-7.84 13.23,-7.55Q13.84,-7.25 14.19,-6.7Q14.53,-6.16 14.53,-5.38Q14.53,-4.61 14.19,-4.06Q13.84,-3.51 13.23,-3.22Q12.61,-2.93 11.78,-2.93L9.78,-2.93L9.78,-4.07L11.84,-4.07Q12.46,-4.07 12.82,-4.44Q13.18,-4.8 13.18,-5.38Q13.18,-5.95 12.82,-6.31Q12.46,-6.67 11.84,-6.67L9.95,-6.67L10.52,-7.2L10.52,0L9.15,0ZM17.53,0Q16.96,0 16.59,-0.37Q16.22,-0.74 16.22,-1.31L16.22,-7.84L17.59,-7.84L17.59,-1.7Q17.59,-1.53 17.71,-1.41Q17.83,-1.29 18,-1.29L21.16,-1.29L21.16,0L17.53,0ZM25.79,0.15Q24.96,0.15 24.26,-0.14Q23.55,-0.43 23.03,-0.97Q22.51,-1.5 22.22,-2.24Q21.93,-2.99 21.93,-3.89L21.93,-3.98Q21.93,-4.87 22.22,-5.61Q22.51,-6.35 23.03,-6.88Q23.55,-7.41 24.26,-7.7Q24.96,-7.99 25.79,-7.99Q26.62,-7.99 27.33,-7.7Q28.04,-7.41 28.55,-6.88Q29.07,-6.35 29.36,-5.61Q29.65,-4.87 29.65,-3.98L29.65,-3.89Q29.65,-2.99 29.36,-2.24Q29.07,-1.5 28.55,-0.97Q28.04,-0.43 27.33,-0.14Q26.62,0.15 25.79,0.15ZM25.79,-1.19Q26.51,-1.19 27.06,-1.52Q27.61,-1.84 27.92,-2.45Q28.24,-3.05 28.24,-3.89L28.24,-3.98Q28.24,-4.8 27.92,-5.4Q27.61,-6 27.06,-6.32Q26.51,-6.65 25.79,-6.65Q25.08,-6.65 24.53,-6.32Q23.97,-6 23.66,-5.4Q23.34,-4.8 23.34,-3.98L23.34,-3.89Q23.34,-3.05 23.66,-2.45Q23.97,-1.84 24.53,-1.52Q25.08,-1.19 25.79,-1.19ZM30.51,0L33.37,-7.84L35.07,-7.84L37.93,0L36.52,0L34.12,-6.79L34.32,-6.79L31.92,0L30.51,0ZM31.77,-1.92L32.21,-3.09L36.25,-3.09L36.7,-1.92L31.77,-1.92ZM39.44,0L39.44,-7.84L42.26,-7.84Q43.09,-7.84 43.8,-7.56Q44.51,-7.29 45.04,-6.77Q45.56,-6.26 45.86,-5.56Q46.15,-4.86 46.15,-4.01L46.15,-3.89Q46.15,-3.03 45.85,-2.32Q45.56,-1.61 45.03,-1.09Q44.5,-0.57 43.79,-0.28Q43.08,0 42.26,0L39.44,0ZM40.81,-0.71L40.24,-1.28L42.16,-1.28Q42.91,-1.28 43.49,-1.61Q44.08,-1.94 44.41,-2.53Q44.74,-3.12 44.74,-3.89L44.74,-4.01Q44.74,-4.78 44.42,-5.35Q44.09,-5.92 43.51,-6.24Q42.92,-6.56 42.16,-6.56L40.24,-6.56L40.81,-7.13L40.81,-0.71Z" transform="translate(116.56,124.7)" fill="rgb(78,94,116)" stroke-width="1px"/></g></g><g><rect x="84.65625" y="243.5" width="46" height="26" rx="13" ry="13" fill="rgb(241,245,249)"/></g><g><rect x="87.65625" y="247.5" width="20" height="20" rx="10" ry="10" fill="rgba(0,0,0,0.35)" filter="url(#shadow-3)"/><rect x="87.65625" y="246.5" width="20" height="20" rx="10" ry="10" fill="rgb(255,255,255)"/></g></g></g></svg>