<svg xmlns="http://www.w3.org/2000/svg" width="822.4063" height="54.4531" viewBox="0 0 822.4063 54.4531" xmlns:c2pa="http://c2pa.org/manifest"><metadata><c2pa:manifest>AAAIDWp1bWIAAAAeanVtZGMycGEAEQAQgAAAqgA4m3EDYzJwYQAAAAfnanVtYgAAAEdqdW1kYzJtYQARABCAAACqADibcQN1cm46dXVpZDpmOTUxZTU4Ni01NGQ1LTQ4ODEtOTFiMS02MTU4YjgyM2NlZDEAAAADLmp1bWIAAAApanVtZGMyYXMAEQAQgAAAqgA4m3EDYzJwYS5hc3NlcnRpb25zAAAAAO5qdW1iAAAAKWp1bWRjYm9yABEAEIAAAKoAOJtxA2MycGEuYWN0aW9ucy52MgAAAAC9Y2JvcqFnYWN0aW9uc4GkZmFjdGlvbmxjMnBhLmNyZWF0ZWRxZGlnaXRhbFNvdXJjZVR5cGV4Pmh0dHA6Ly9jdi5pcHRjLm9yZy9uZXdzY29kZXMvZGlnaXRhbHNvdXJjZXR5cGUvZGlnaXRhbENyZWF0aW9ubXNvZnR3YXJlQWdlbnSiZG5hbWVlTG9sbHlndmVyc2lvbmcxLjE0Ni4wZHdoZW50MjAyNi0wOC0yM1QxMzo1Njo0NloAAACranVtYgAAAChqdW1kY2JvcgARABCAAACqADibcQNjMnBhLmhhc2guZGF0YQAAAAB7Y2JvcqVqZXhjbHVzaW9uc4GiZXN0YXJ0GKhmbGVuZ3RoGQq8ZG5hbWVuanVtYmYgbWFuaWZlc3RjYWxnZnNoYTI1NmRoYXNoWCAYtlz+kh1LKOOO9MTzjfshqnvJmyWirZF4h+DVS6Ooh2NwYWRIAAAAAAAAAAAAAAFkanVtYgAAACxqdW1kY2JvcgARABCAAACqADibcQN0b29scy5sb2xseS5leHBvcnQAAAABMGNib3KoZ3N1cmZhY2VkZG9jc2ZlbmdpbmVtbm9kZSB2MjQuMTkuMGJvc2ZkYXJ3aW5mZm9ybWF0Y3N2Z2R0b29sblVSTCBTY3JlZW5zaG90ZGRhdGV4GDIwMjYtMDgtMjNUMTM6NTY6NDYuNDQ3WmpkaW1lbnNpb25zbzE0NDAgw5cgMTQwMCBweGZpbnB1dHOnY3VybGovIy9wcm9maWxlZndhaXRNc2QxNjAwZXRoZW1lZGRhcmtnY3JvcFRvcHMwLjA2ODYwNDkxMDcxNDI4NTcyaWNyb3BSaWdodHMwLjExMzg4ODg4ODg4ODg4ODg5amNyb3BCb3R0b21yMC44NTgyMTQyODU3MTQyODU3aGNyb3BMZWZ0cjAuMjgxNjYyMzI2Mzg4ODg4OQAAAglqdW1iAAAAJ2p1bWRjMmNsABEAEIAAAKoAOJtxA2MycGEuY2xhaW0udjIAAAAB2mNib3KmaGRjOnRpdGxlblVSTCBTY3JlZW5zaG90amluc3RhbmNlSUR4LXVybjp1dWlkOmJjYTkyZWIwLWVkZWMtNDY5MS1hODE5LTA3OWE5YjdlYmQ0YXRjbGFpbV9nZW5lcmF0b3JfaW5mb6JkbmFtZWVMb2xseWd2ZXJzaW9uZzEuMTQ2LjByY3JlYXRlZF9hc3NlcnRpb25zg6JjdXJseCpzZWxmI2p1bWJmPWMycGEuYXNzZXJ0aW9ucy9jMnBhLmFjdGlvbnMudjJkaGFzaFggtGr7F/uCDdu1odlIIjicHy1BIPF9NLhjfB0K9TVzGDGiY3VybHgpc2VsZiNqdW1iZj1jMnBhLmFzc2VydGlvbnMvYzJwYS5oYXNoLmRhdGFkaGFzaFgg1qHMa/3D1ilcn+3957UdKG7Rk4afNCEBhsiiV8f5cJeiY3VybHgtc2VsZiNqdW1iZj1jMnBhLmFzc2VydGlvbnMvdG9vbHMubG9sbHkuZXhwb3J0ZGhhc2hYIMw2kLjqgp4b0u+S60RDfLgN/NN3kjhr4PgmIrewogx0aXNpZ25hdHVyZXgZc2VsZiNqdW1iZj1jMnBhLnNpZ25hdHVyZWNhbGdmc2hhMjU2AAACYWp1bWIAAAAoanVtZGMyY3MAEQAQgAAAqgA4m3EDYzJwYS5zaWduYXR1cmUAAAACMWNib3LShFkB4KIBJhghgVkB1zCCAdMwggF5oAMCAQICCVko2UOCgxdWdTAKBggqhkjOPQQDAjA1MQ4wDAYDVQQKDAVMb2xseTEjMCEGA1UEAwwaTG9sbHkgT24tRGV2aWNlIENyZWRlbnRpYWwwHhcNMjYwODIzMTM1NTQ2WhcNMjcwODIzMTM1NjQ2WjA1MQ4wDAYDVQQKDAVMb2xseTEjMCEGA1UEAwwaTG9sbHkgT24tRGV2aWNlIENyZWRlbnRpYWwwWTATBgcqhkjOPQIBBggqhkjOPQMBBwNCAARMcfc/FSMGNXaF5T+08bJsWGLWHCxbrPaLLEeY+wqjpynsM03ujONvIUGy1X5XyFIfQlcC6kwVH7ayh2DgpXN8o3IwcDAJBgNVHRMEAjAAMA4GA1UdDwEB/wQEAwIHgDATBgNVHSUEDDAKBggrBgEFBQcDBDAdBgNVHQ4EFgQUAtyJuxKll8MCNKwXhFLkRkWvuvcwHwYDVR0jBBgwFoAUAtyJuxKll8MCNKwXhFLkRkWvuvcwCgYIKoZIzj0EAwIDSAAwRQIgcRUAHM1kRbB/knHmgl9r9gvt0Vu/6EmaR2EgAFEX1y4CIQDYYpg8oI2FfL8UDcdwFRUxfz5A93vmKkdV32wbkJ/QY6D2WECDSb50YMH41bVzjuCf2tDfJMnOc1JJNCH5X+jnun3RIMuQRn/Mq+yGY74g/q1Fu8kuAPNuelo3CpUSo2icIqjA</c2pa:manifest></metadata><g><g><rect width="822.4063" height="54.4531" fill="#090e1a" rx="20" ry="20"/><rect width="821.4063" height="53.4531" x=".5" y=".5" fill="none" stroke="#1f2a3d" rx="19.5" ry="19.5"/><g><g><path fill="#b6c0ce" d="m.04 0 2.89-8.06h2.02L7.83 0H6.16L3.83-6.83h.22L1.71 0zm1.31-1.87.52-1.37h4.16l.53 1.37zM9.54 0v-8.06h2.81q.89 0 1.54.31.64.3 1 .88.37.58.37 1.39 0 .8-.37 1.38-.36.58-1 .88-.65.31-1.54.31H10.3v-1.35h2.13q.57 0 .89-.35.33-.34.33-.87t-.33-.87q-.32-.33-.89-.33H10.5l.67-.63V0zm7.64 0v-8.06h2.81q.89 0 1.53.31.65.3 1.01.88t.36 1.39q0 .8-.36 1.38t-1.01.88q-.64.31-1.53.31h-2.06v-1.35h2.14q.57 0 .89-.35.33-.34.33-.87t-.33-.87q-.32-.33-.89-.33h-1.94l.68-.63V0zm8.94 0q-.59 0-.98-.39t-.39-.98v-5.32q0-.6.39-.98.39-.39.98-.39h4.03v1.47h-3.47q-.13 0-.23.1-.09.1-.09.23v4.46q0 .13.09.23.1.09.23.09h3.47V0zm-.59-3.35v-1.41h4.38v1.41zM31.58 0l2.89-8.06h2.02L39.37 0H37.7l-2.33-6.83h.22L33.25 0zm1.31-1.87.52-1.37h4.16l.53 1.37zM41.08 0v-8.06h3.04q.87 0 1.51.29.65.3 1 .88.36.58.36 1.42 0 .85-.36 1.43-.35.59-1 .89-.64.29-1.51.29h-2.29v-1.36h2.21q.57 0 .93-.32.35-.33.35-.9t-.35-.91q-.36-.34-.93-.34h-2l.67-.62V0zm4.29 0-1.89-3.56h1.76L47.23 0zm3.03 0 2.89-8.06h2.02L56.19 0h-1.67l-2.33-6.83h.22L50.07 0zm1.31-1.87.52-1.37h4.16l.53 1.37zM57.9 0v-8.06h1.47l4.21 6.2-.7.11v-6.31h1.63V0h-1.43L58.9-6.13l.63-.12V0zm12.89.16q-.87 0-1.63-.3t-1.33-.85q-.58-.55-.9-1.31t-.32-1.66v-.14q0-.91.32-1.66.32-.76.9-1.31.57-.55 1.33-.86.76-.3 1.63-.3.83 0 1.51.26.68.27 1.22.76l-1.05 1.22q-.34-.32-.76-.48-.42-.17-.92-.17-.73 0-1.3.32t-.89.9q-.32.57-.32 1.32v.14q0 .75.32 1.32t.89.89q.57.33 1.3.33.52 0 .95-.18t.78-.53l1.05 1.22q-.55.51-1.26.79-.7.28-1.52.28M76.74 0q-.6 0-.98-.39-.39-.39-.39-.98v-5.32q0-.6.39-.98.38-.39.98-.39h4.03v1.47H77.3q-.13 0-.23.1-.09.1-.09.23v4.46q0 .13.09.23.1.09.23.09h3.47V0zm-.59-3.35v-1.41h4.38v1.41z" transform="translate(23.39,30.59)"/></g><g><svg xmlns="http://www.w3.org/2000/svg" width="16" height="16" x="783.0156" y="19.2188" fill="none" stroke="currentColor" stroke-linecap="round" stroke-linejoin="round" stroke-width="2.5" aria-hidden="true" class="profile-collapse-chev section-card-chev" color="#b6c0ce" viewBox="0 0 24 24"><path d="m9 18 6-6-6-6" style="fill:none;stroke:#b6c0ce;stroke-width:2.5px;stroke-linecap:round;stroke-linejoin:round"/></svg></g></g></g></g></svg>