<svg xmlns="http://www.w3.org/2000/svg" width="1440" height="900" viewBox="0 0 1440 900" xmlns:c2pa="http://c2pa.org/manifest"><metadata><c2pa:manifest>AAAHwmp1bWIAAAAeanVtZGMycGEAEQAQgAAAqgA4m3EDYzJwYQAAAAecanVtYgAAAEdqdW1kYzJtYQARABCAAACqADibcQN1cm46dXVpZDpkODVlMDkxYi1iYzFhLTQ2ODQtOTM1OS0wY2FkMTg1YTJhN2EAAAAC4mp1bWIAAAApanVtZGMyYXMAEQAQgAAAqgA4m3EDYzJwYS5hc3NlcnRpb25zAAAAAO5qdW1iAAAAKWp1bWRjYm9yABEAEIAAAKoAOJtxA2MycGEuYWN0aW9ucy52MgAAAAC9Y2JvcqFnYWN0aW9uc4GkZmFjdGlvbmxjMnBhLmNyZWF0ZWRxZGlnaXRhbFNvdXJjZVR5cGV4Pmh0dHA6Ly9jdi5pcHRjLm9yZy9uZXdzY29kZXMvZGlnaXRhbHNvdXJjZXR5cGUvZGlnaXRhbENyZWF0aW9ubXNvZnR3YXJlQWdlbnSiZG5hbWVlTG9sbHlndmVyc2lvbmcxLjEzNC4wZHdoZW50MjAyNi0wOC0yMFQxNToxNDo1MVoAAACranVtYgAAAChqdW1kY2JvcgARABCAAACqADibcQNjMnBhLmhhc2guZGF0YQAAAAB7Y2JvcqVqZXhjbHVzaW9uc4GiZXN0YXJ0GJhmbGVuZ3RoGQpYZG5hbWVuanVtYmYgbWFuaWZlc3RjYWxnZnNoYTI1NmRoYXNoWCCnjLypcFnKl2Bvx4LeLX+k9RuTz52coWYM37I4fe9wDGNwYWRIAAAAAAAAAAAAAAEYanVtYgAAACxqdW1kY2JvcgARABCAAACqADibcQN0b29scy5sb2xseS5leHBvcnQAAAAA5GNib3KoZ3N1cmZhY2VkZG9jc2ZlbmdpbmVtbm9kZSB2MjQuMTkuMGJvc2ZkYXJ3aW5mZm9ybWF0Y3N2Z2R0b29sblVSTCBTY3JlZW5zaG90ZGRhdGV4GDIwMjYtMDgtMjBUMTU6MTQ6NTEuNDY0WmpkaW1lbnNpb25zbjE0NDAgw5cgOTAwIHB4ZmlucHV0c6NjdXJseDIvIy90b29sL2QzP2N0PWRvbnV0JnBsPXdhcm0mdD1FdmVyeXRoaW5nJTIwaW4lMuKApmZ3YWl0TXNkMjgwMGV0aGVtZWRkYXJrAAACCWp1bWIAAAAnanVtZGMyY2wAEQAQgAAAqgA4m3EDYzJwYS5jbGFpbS52MgAAAAHaY2JvcqZoZGM6dGl0bGVuVVJMIFNjcmVlbnNob3RqaW5zdGFuY2VJRHgtdXJuOnV1aWQ6ZTg0ZDRkNmEtMmM4ZS00Y2M2LWE5NDItZDlkZTdhNGY2ZjkzdGNsYWltX2dlbmVyYXRvcl9pbmZvomRuYW1lZUxvbGx5Z3ZlcnNpb25nMS4xMzQuMHJjcmVhdGVkX2Fzc2VydGlvbnODomN1cmx4KnNlbGYjanVtYmY9YzJwYS5hc3NlcnRpb25zL2MycGEuYWN0aW9ucy52MmRoYXNoWCBAksL/sYluDg2NopyGItt+NMJk/h67EQDv15I1Q1rlX6JjdXJseClzZWxmI2p1bWJmPWMycGEuYXNzZXJ0aW9ucy9jMnBhLmhhc2guZGF0YWRoYXNoWCBPcGXK+ffNvjEY0nbYPVfWngBnEx5AT995mjdqxNV0WKJjdXJseC1zZWxmI2p1bWJmPWMycGEuYXNzZXJ0aW9ucy90b29scy5sb2xseS5leHBvcnRkaGFzaFggyzjJWxV14oFLARUrrdbRm0TJQAHhQIEcM9WIcbGkkO9pc2lnbmF0dXJleBlzZWxmI2p1bWJmPWMycGEuc2lnbmF0dXJlY2FsZ2ZzaGEyNTYAAAJianVtYgAAAChqdW1kYzJjcwARABCAAACqADibcQNjMnBhLnNpZ25hdHVyZQAAAAIyY2JvctKEWQHhogEmGCGBWQHYMIIB1DCCAXmgAwIBAgIJSFoV9xih2wIOMAoGCCqGSM49BAMCMDUxDjAMBgNVBAoMBUxvbGx5MSMwIQYDVQQDDBpMb2xseSBPbi1EZXZpY2UgQ3JlZGVudGlhbDAeFw0yNjA4MjAxNTEzNTFaFw0yNzA4MjAxNTE0NTFaMDUxDjAMBgNVBAoMBUxvbGx5MSMwIQYDVQQDDBpMb2xseSBPbi1EZXZpY2UgQ3JlZGVudGlhbDBZMBMGByqGSM49AgEGCCqGSM49AwEHA0IABBeb9ps9nzVcMCZS7cHvSbcFmTvc8lTCrg+dh2/4ovT3e89Ttbar+cYkk6b3A9ivJrArJvkyNhMH54LzwJP+V1SjcjBwMAkGA1UdEwQCMAAwDgYDVR0PAQH/BAQDAgeAMBMGA1UdJQQMMAoGCCsGAQUFBwMEMB0GA1UdDgQWBBRVKJ+GXEcuy+USLjCs/mHjkxKTAzAfBgNVHSMEGDAWgBRVKJ+GXEcuy+USLjCs/mHjkxKTAzAKBggqhkjOPQQDAgNJADBGAiEAyYrAKe6B5V+KpYyPa62g5abIf0PAhEsaxxq/ju2UdpsCIQCj6ZLWHvex0kR/83ERM3ZzUBv85RL2io6ae+dv6+2szqD2WEBQh5mPI2xjrnqr7cvexyZboAWop8NfqbASTpXPuZh1nRdR/mK14bXsdtlu/dAG4ekT2gTQBGLdKlu1pUoG7e+s</c2pa:manifest></metadata><defs><clipPath id="fcbdclip-3" clipPathUnits="userSpaceOnUse"><rect width="1" height="900" fill="#fff"/></clipPath><clipPath id="fcshclip-5" clipPathUnits="userSpaceOnUse"><path d="M-17.8-17.8h51.6v131.19h-51.6ZM0 0h16v95.594H0z" clip-rule="evenodd"/></clipPath><clipPath id="fcshclip-7" clipPathUnits="userSpaceOnUse"><path d="M-122.8-122.8h261.6v341.19h-261.6ZM0 0h16v95.594H0z" clip-rule="evenodd"/></clipPath><clipPath id="fcbdclip-10" clipPathUnits="userSpaceOnUse"><rect width="16" height="95.5938" fill="#fff"/></clipPath><clipPath id="fcinsetclip-11" clipPathUnits="userSpaceOnUse"><rect width="16" height="95.5938" fill="#fff"/></clipPath><clipPath id="fcovclip-4" clipPathUnits="userSpaceOnUse"><rect width="1" height="900" fill="#fff"/></clipPath><clipPath id="fcshclip-14" clipPathUnits="userSpaceOnUse"><path d="M-33-34H68v172H-33Zm50.5 46a4.5 4.5 0 0 1 4.5 4.5v71a4.5 4.5 0 0 1-4.5 4.5 4.5 4.5 0 0 1-4.5-4.5v-71a4.5 4.5 0 0 1 4.5-4.5" clip-rule="evenodd"/></clipPath><clipPath id="fcinsetclip-16" clipPathUnits="userSpaceOnUse"><rect width="9" height="80" x="13" y="12" fill="#fff" rx="4.5" ry="4.5"/></clipPath><clipPath id="fcovclip-17" clipPathUnits="userSpaceOnUse"><rect width="9" height="80" x="13" y="12" fill="#fff" rx="4.5" ry="4.5"/></clipPath><clipPath id="fcbdclip-19" clipPathUnits="userSpaceOnUse"><rect width="28" height="28" x="11" y="10" fill="#fff" rx="14" ry="14"/></clipPath><clipPath id="fcshclip-20" clipPathUnits="userSpaceOnUse"><path d="M-20.5-91h1482V991h-1482Zm141 141h1200v800h-1200z" clip-rule="evenodd"/></clipPath><clipPath id="fcbdclip-23" clipPathUnits="userSpaceOnUse"><rect width="211.4375" height="41.5938" x="1196.5625" y="8" fill="#fff" rx="20.7969" ry="20.7969"/></clipPath><clipPath id="fcovclip-1" clipPathUnits="userSpaceOnUse"><rect width="1440" height="900" fill="#fff" rx="16" ry="16"/></clipPath><filter id="fcbd-2" width="29" height="928" x="-14" y="-14" color-interpolation-filters="sRGB" filterUnits="userSpaceOnUse"><feGaussianBlur stdDeviation="2.5"/></filter><filter id="shadow-6" width="40.4" height="119.9938" x="-12.2" y="-10.8" filterUnits="userSpaceOnUse"><feGaussianBlur in="SourceGraphic" stdDeviation="1.4"/></filter><filter id="shadow-8" width="145.4" height="224.9937" x="-64.7" y="-63.3" filterUnits="userSpaceOnUse"><feGaussianBlur in="SourceGraphic" stdDeviation="18.9"/></filter><filter id="fcbd-9" width="44" height="123.59" x="-14" y="-14" color-interpolation-filters="sRGB" filterUnits="userSpaceOnUse"><feGaussianBlur stdDeviation="2.5"/></filter><filter id="shadow-15" width="61" height="132" x="-13" y="-12" filterUnits="userSpaceOnUse"><feGaussianBlur in="SourceGraphic" stdDeviation="6"/></filter><filter id="fcbd-18" width="60" height="60" x="-5" y="-6" color-interpolation-filters="sRGB" filterUnits="userSpaceOnUse"><feGaussianBlur stdDeviation="3"/></filter><filter id="shadow-21" width="1342" height="942" x="49.5" y="-14" filterUnits="userSpaceOnUse"><feGaussianBlur in="SourceGraphic" stdDeviation="21"/></filter><filter id="fcbd-22" width="243.44" height="73.59" x="1180.56" y="-8" color-interpolation-filters="sRGB" filterUnits="userSpaceOnUse"><feGaussianBlur stdDeviation="3"/></filter><pattern id="fcconicpat-13" width="28" height="28" x="6.5" y="16" patternUnits="userSpaceOnUse"><g><path fill="#fff" fill-opacity=".024" d="M14 14V-5.8a19.8 19.8 0 0 1 19.8 19.88Z" shape-rendering="crispEdges"/><path fill-opacity=".024" d="M14 14h19.8a19.8 19.8 0 0 1-19.88 19.8Z" shape-rendering="crispEdges"/><path fill="#fff" fill-opacity=".024" d="M14 14v19.8A19.8 19.8 0 0 1-5.8 13.92Z" shape-rendering="crispEdges"/><path fill-opacity=".024" d="M14 14H-5.8A19.8 19.8 0 0 1 14.08-5.8Z" shape-rendering="crispEdges"/></g></pattern></defs><g><g><rect width="1440" height="900" fill="#030711"/><g clip-path="url(#fcovclip-1)"><g><g clip-path="url(#fcbdclip-3)" filter="url(#fcbd-2)"><g><rect width="1440" height="900" fill="#030711"/></g></g><rect width="1" height="900" fill="rgba(9,14,26,0.8)"/><rect width="1" height="900" fill="#1f2a3d"/><g clip-path="url(#fcovclip-4)"><g><rect width="16" height="95.5938" y="1.4" fill="rgba(0,0,0,0.067)" clip-path="url(#fcshclip-5)" filter="url(#shadow-6)"/><rect width="16" height="95.5938" y="1.4" fill="rgba(0,0,0,0.067)" clip-path="url(#fcshclip-7)" filter="url(#shadow-8)"/><g clip-path="url(#fcbdclip-10)" filter="url(#fcbd-9)"><g><rect width="1440" height="900" fill="#030711"/></g></g><rect width="16" height="95.5938" fill="rgba(9,14,26,0.82)"/><path fill="#fff" fill-opacity=".067" fill-rule="evenodd" d="M-9-9h34v113.59H-9Zm9 8h16v95.594H0z" clip-path="url(#fcinsetclip-11)"/></g></g></g></g><g clip-path="url(#fcovclip-1)"><g><rect width="1439" height="900" x="1" fill="url(#fcconicpat-13)"/><g><rect width="1200" height="800" x="120.5" y="57" fill="rgba(0,0,0,0.133)" clip-path="url(#fcshclip-20)" filter="url(#shadow-21)"/><path fill="rgba(136,136,136,0.267)" fill-rule="evenodd" d="M120.5 49h1200a1 1 0 0 1 1 1v800a1 1 0 0 1-1 1h-1200a1 1 0 0 1-1-1V50a1 1 0 0 1 1-1m0 1h1200v800h-1200z"/></g></g></g><g clip-path="url(#fcovclip-1)"><g><g><svg xmlns="http://www.w3.org/2000/svg" id="d3-svg" width="1200" height="800" x="120.5" y="50" color="#e1e7ef" data-canvas-input="width" data-lolly-anno="donut auto grouped monotone uniform none linear auto warm series #fafbfe right" style="width:100%;height:auto;display:block" viewBox="0 0 1200 800"><defs><style>#d3-svg [data-annot],#d3-svg [data-recolor]{cursor:pointer}</style></defs><rect id="d3-bg" width="1200" height="800" fill="#fafbfe" data-canvas-input="width" pointer-events="all" style="cursor:pointer;fill:#fafbfe"/></svg></g></g></g><g clip-path="url(#fcovclip-1)"><g><rect width="9" height="80" x="13" y="14" fill="rgba(0,0,0,0.3)" clip-path="url(#fcshclip-14)" filter="url(#shadow-15)" rx="4.5" ry="4.5"/><rect width="9" height="80" x="13" y="12" fill="rgba(128,128,128,0.28)" rx="4.5" ry="4.5"/><path fill-opacity=".14" fill-rule="evenodd" d="M4 3h27v98H4Zm13.5 10a3.5 3.5 0 0 1 3.5 3.5v71a3.5 3.5 0 0 1-3.5 3.5 3.5 3.5 0 0 1-3.5-3.5v-71a3.5 3.5 0 0 1 3.5-3.5" clip-path="url(#fcinsetclip-16)"/><g clip-path="url(#fcovclip-17)"><g><rect width="9" height="12.125" x="13" y="79.875" fill="#27b059" rx="4.5" ry="4.5"/></g></g></g></g><g clip-path="url(#fcovclip-1)"><g><g clip-path="url(#fcbdclip-19)" filter="url(#fcbd-18)"><g><rect width="1440" height="900" fill="#030711"/></g></g><rect width="28" height="28" x="11" y="10" fill="rgba(9,14,26,0.88)" rx="14" ry="14"/><rect width="27" height="27" x="11.5" y="10.5" fill="none" stroke="#1f2a3d" rx="13.5" ry="13.5"/></g></g><g clip-path="url(#fcovclip-1)"><g opacity=".45"><g clip-path="url(#fcbdclip-23)" filter="url(#fcbd-22)"><g><rect width="1440" height="900" fill="#030711"/></g></g><rect width="211.4375" height="41.5938" x="1196.5625" y="8" fill="rgba(9,14,26,0.85)" rx="20.7969" ry="20.7969"/><rect width="210.4375" height="40.5938" x="1197.0625" y="8.5" fill="none" stroke="#1f2a3d" rx="20.2969" ry="20.2969"/><g><path fill="#e1e7ef" d="M1.07-5.07v-1.07h7.45v1.07z" transform="translate(1208.75,34.8)"/></g><g><path fill="#e1e7ef" d="m2.01 0 2.67-3.64.39-.01q-.37.36-.82.53-.45.16-.93.16-.8 0-1.42-.36-.61-.35-.96-.98-.35-.62-.35-1.43 0-.84.37-1.47.38-.62 1.04-.97t1.52-.35q.91 0 1.57.35t1.02.98q.36.64.36 1.51 0 .57-.21 1.11T5.69-3.5L3.24 0zm1.5-3.82q.59 0 1.02-.24.43-.25.68-.68.24-.43.24-.99 0-.86-.52-1.38t-1.39-.52q-.56 0-.99.24-.44.24-.68.67t-.24.99.24.99.67.68q.42.24.97.24m4.25 1.78v-.84l2.79-5.52h1.03L8.72-2.67l-.23-.28h5.45v.91zM11.63 0v-5.21h.98V0zm4.69 0 2.6-4.15 2.63-4.25h1.05l-2.8 4.47L17.37 0zm.52-4.36q-.61 0-1.08-.26-.47-.27-.74-.74-.27-.48-.27-1.08 0-.62.27-1.08.27-.47.74-.73.47-.27 1.08-.27.6 0 1.06.27.47.26.74.73.27.46.27 1.08 0 .6-.27 1.08-.27.47-.74.74-.46.26-1.06.26m0-.78q.36 0 .63-.17.28-.18.44-.47t.16-.66q0-.56-.35-.92-.35-.37-.88-.37-.54 0-.89.37-.36.36-.36.92 0 .37.17.66.16.29.44.47.28.17.64.17M22.08.12q-.6 0-1.07-.27-.47-.26-.74-.74Q20-1.36 20-1.97t.27-1.07q.27-.47.74-.74.47-.26 1.07-.26.61 0 1.07.26.47.27.74.74.27.46.27 1.07t-.27 1.08q-.27.48-.74.74-.46.27-1.07.27m0-.79q.36 0 .64-.17t.44-.46q.16-.3.16-.66 0-.56-.36-.93-.35-.37-.88-.37t-.88.37-.35.93q0 .55.35.92t.88.37" transform="translate(1240.3,32.8)"/></g><g><path fill="#e1e7ef" d="M4.26-1.88v-3.2H1.08v-1.07h3.18v-3.18h1.09v3.18h3.18v1.07H5.35v3.2z" transform="translate(1286.75,34.8)"/></g><g><path fill="#e1e7ef" d="M.92 0v-7q0-.61.39-1 .39-.4 1-.4h4.01v1.34H2.83q-.19 0-.32.13-.12.12-.12.31V0zm.75-3.25v-1.32h4.37v1.32zM7.86 0v-5.29l.62.62H6.81v-1.17h2.44V0zM7.8-7.01V-8.6h1.53v1.59zM13.07 0q-.32 0-.64-.08-.32-.07-.58-.27-.27-.19-.43-.52-.16-.34-.16-.85v-5.55h1.38v5.66q0 .18.13.31t.31.13h.93V0zm-2.79-4.67v-1.17h3.73v1.17z" transform="translate(1316.56,32.8)"/></g><g><rect width="1" height="16" x="1345" y="20.7969" fill="#1f2a3d" rx=".5" ry=".5"/></g><g><g><svg width="14" height="16" x="1356" y="20.7969" fill="none" stroke="currentColor" stroke-linecap="round" stroke-linejoin="round" stroke-width="2" aria-hidden="true" color="#e1e7ef" viewBox="0 0 24 24"><path d="M21 12.79A9 9 0 1 1 11.21 3 7 7 0 0 0 21 12.79" style="fill:none;stroke:#e1e7ef;stroke-width:2px;stroke-linecap:round;stroke-linejoin:round"/></svg></g></g><g><g><svg xmlns="http://www.w3.org/2000/svg" width="14" height="16" x="1384" y="20.7969" fill="none" stroke="currentColor" stroke-linecap="round" stroke-linejoin="round" stroke-width="2" aria-hidden="true" color="#e1e7ef" viewBox="0 0 24 24"><polygon points="11 5 6 9 2 9 2 15 6 15 11 19 11 5" style="fill:none;stroke:#e1e7ef;stroke-width:2px;stroke-linecap:round;stroke-linejoin:round"/><line x1="22" x2="16" y1="9" y2="15" style="fill:none;stroke:#e1e7ef;stroke-width:2px;stroke-linecap:round;stroke-linejoin:round"/><line x1="16" x2="22" y1="9" y2="15" style="fill:none;stroke:#e1e7ef;stroke-width:2px;stroke-linecap:round;stroke-linejoin:round"/></svg></g></g></g></g></g></g></svg>