<?xml version="1.0" standalone="no"?>
<svg xmlns="http://www.w3.org/2000/svg" id="chart-svg" viewBox="0 0 1080 900" width="1080" height="900" style="width:100%;height:auto;display:block;" data-lolly-anno="donut #fafbfe #11141f bottom circle inside bottom inside center auto" data-canvas-input="width" xmlns:c2pa="http://c2pa.org/manifest"><metadata><c2pa:manifest>AAAH/Gp1bWIAAAAeanVtZGMycGEAEQAQgAAAqgA4m3EDYzJwYQAAAAfWanVtYgAAAEdqdW1kYzJtYQARABCAAACqADibcQN1cm46dXVpZDowYTA2Y2Y3Zi1jNWIxLTRhY2UtYWFhYy1jYTQzOWZhMDIyNmMAAAADHGp1bWIAAAApanVtZGMyYXMAEQAQgAAAqgA4m3EDYzJwYS5hc3NlcnRpb25zAAAAAO5qdW1iAAAAKWp1bWRjYm9yABEAEIAAAKoAOJtxA2MycGEuYWN0aW9ucy52MgAAAAC9Y2JvcqFnYWN0aW9uc4GkZmFjdGlvbmxjMnBhLmNyZWF0ZWRxZGlnaXRhbFNvdXJjZVR5cGV4Pmh0dHA6Ly9jdi5pcHRjLm9yZy9uZXdzY29kZXMvZGlnaXRhbHNvdXJjZXR5cGUvZGlnaXRhbENyZWF0aW9ubXNvZnR3YXJlQWdlbnSiZG5hbWVlTG9sbHlndmVyc2lvbmcxLjExMi4wZHdoZW50MjAyNi0wOC0xMFQwMzo1NTozNVoAAACsanVtYgAAAChqdW1kY2JvcgARABCAAACqADibcQNjMnBhLmhhc2guZGF0YQAAAAB8Y2JvcqVqZXhjbHVzaW9uc4GiZXN0YXJ0GQFsZmxlbmd0aBkKqGRuYW1lbmp1bWJmIG1hbmlmZXN0Y2FsZ2ZzaGEyNTZkaGFzaFggRTbVSKKvppDGzbCS2xr5kwd2DtdZVZnMzGd70AoGxHJjcGFkSAAAAAAAAAAAAAABUWp1bWIAAAAsanVtZGNib3IAEQAQgAAAqgA4m3EDdG9vbHMubG9sbHkuZXhwb3J0AAAAAR1jYm9yqGdzdXJmYWNlZGRvY3NmZW5naW5lbW5vZGUgdjI0LjE5LjBib3NmZGFyd2luZmZvcm1hdGNzdmdkdG9vbG5VUkwgU2NyZWVuc2hvdGRkYXRleBgyMDI2LTA4LTEwVDAzOjU1OjM1LjcxNFpqZGltZW5zaW9uc24xNDQwIMOXIDkwMCBweGZpbnB1dHOnY3VybHgaLyMvdG9vbC9jaGFydC1jcmVhdG9yP2Z1bGxmd2FpdE1zZDI1MDBldGhlbWVkZGFya2djcm9wVG9wYTBpY3JvcFJpZ2h0cjAuMTgxNjAwMDE5NjY2ODgzN2pjcm9wQm90dG9tYTBoY3JvcExlZnRzMC4xODIyOTE2NjY2NjY2NjY2NgAAAglqdW1iAAAAJ2p1bWRjMmNsABEAEIAAAKoAOJtxA2MycGEuY2xhaW0udjIAAAAB2mNib3KmaGRjOnRpdGxlblVSTCBTY3JlZW5zaG90amluc3RhbmNlSUR4LXVybjp1dWlkOjNmZDI1MzIzLWY0ZjEtNDRmMS1hMWYyLWYxMzc5YzAwYWQxMHRjbGFpbV9nZW5lcmF0b3JfaW5mb6JkbmFtZWVMb2xseWd2ZXJzaW9uZzEuMTEyLjByY3JlYXRlZF9hc3NlcnRpb25zg6JjdXJseCpzZWxmI2p1bWJmPWMycGEuYXNzZXJ0aW9ucy9jMnBhLmFjdGlvbnMudjJkaGFzaFgg9ChkPZYNA7Ex87tLcyXvDFVBmnlgww3IO2SbR85avEuiY3VybHgpc2VsZiNqdW1iZj1jMnBhLmFzc2VydGlvbnMvYzJwYS5oYXNoLmRhdGFkaGFzaFggE/9gqvniEk+eI+cVoS9htgoBiplvhV8pANQPiG71K5iiY3VybHgtc2VsZiNqdW1iZj1jMnBhLmFzc2VydGlvbnMvdG9vbHMubG9sbHkuZXhwb3J0ZGhhc2hYIFOOF5obG7xUZIoAo3kNTKOcXKrS55sT+an8zCCQNQ5laXNpZ25hdHVyZXgZc2VsZiNqdW1iZj1jMnBhLnNpZ25hdHVyZWNhbGdmc2hhMjU2AAACYmp1bWIAAAAoanVtZGMyY3MAEQAQgAAAqgA4m3EDYzJwYS5zaWduYXR1cmUAAAACMmNib3LShFkB4aIBJhghgVkB2DCCAdQwggF5oAMCAQICCVT2w5yTur2qmjAKBggqhkjOPQQDAjA1MQ4wDAYDVQQKDAVMb2xseTEjMCEGA1UEAwwaTG9sbHkgT24tRGV2aWNlIENyZWRlbnRpYWwwHhcNMjYwODEwMDM1NDM1WhcNMjcwODEwMDM1NTM1WjA1MQ4wDAYDVQQKDAVMb2xseTEjMCEGA1UEAwwaTG9sbHkgT24tRGV2aWNlIENyZWRlbnRpYWwwWTATBgcqhkjOPQIBBggqhkjOPQMBBwNCAASgm5Be3sDZbY1wICct+fBLTdITcT7to51i38GOSjbIoQSGj0lj5unHnzET76w3TgRkxerKnXbmLAivILIuZ+eWo3IwcDAJBgNVHRMEAjAAMA4GA1UdDwEB/wQEAwIHgDATBgNVHSUEDDAKBggrBgEFBQcDBDAdBgNVHQ4EFgQULj2dKoZELkxeW5jpm+aqgtGlPY4wHwYDVR0jBBgwFoAULj2dKoZELkxeW5jpm+aqgtGlPY4wCgYIKoZIzj0EAwIDSQAwRgIhAIK4ibIy2c0TMhHEuUGW6hpKobDtwV6GTQBmL7J9z47cAiEA6euzhXNOl2HJHcBDjr2/lAVwD12za+D5gjschGEXc4Gg9lhA49CZuqI85Yk7H+J3ghI16ZL7epIYGejbaHh3dRkLxBxR47MainsZaN/Zk2G2UsWpTq9A+qB6S4cRlmU1SexEDg==</c2pa:manifest></metadata>
  <defs>
    <style>
      /* Brand font via the injected var (community pattern — no @font-face here;
         the shell loads the active brand's faces). 'SUSE' rides the fallback
         tail so an already-registered face still resolves on older shells. */
      text, tspan { font-family: var(--font-brand, 'SUSE', system-ui, sans-serif); }
      /* Click-to-focus: annotated parts jump to their sidebar control on click — hint it. */
      #chart-svg [data-canvas-input] { cursor: pointer; }
    </style>
  </defs>
  <rect id="chart-bg" width="1080" height="1080" fill="none" data-canvas-input="background" pointer-events="all"/>
  <g data-canvas-input="data"><path d="M 540 72 A 468 468 0 0 1 860.3680455746264 881.1573176332205 L 680.9619400528356 690.109219758617 A 205.92 205.92 0 0 0 540 334.08000000000004 Z" fill="#008657"/><path d="M14.11,0.51Q10.25,0.51 7.38,-0.73Q4.52,-1.97 2.43,-3.99L5.38,-7.53Q7.03,-5.92 9.13,-4.93Q11.23,-3.93 14.16,-3.93Q16.49,-3.93 18.21,-4.69Q19.93,-5.46 20.88,-6.82Q21.84,-8.18 21.84,-9.99Q21.84,-12.56 19.87,-14.09Q17.91,-15.62 14.54,-15.62L9.33,-15.62L9.33,-20.17L14.13,-20.17Q16.27,-20.17 17.8,-20.94Q19.34,-21.7 20.16,-23.02Q20.99,-24.34 20.99,-25.97Q20.99,-28.63 19.12,-30.15Q17.25,-31.66 14.15,-31.66Q11.5,-31.66 9.49,-30.68Q7.48,-29.69 6.17,-28.29L3.21,-31.89Q5.09,-33.76 7.95,-34.99Q10.8,-36.21 14.32,-36.21Q17.83,-36.21 20.49,-35.03Q23.15,-33.84 24.63,-31.69Q26.11,-29.54 26.11,-26.62Q26.11,-23.9 24.77,-21.66Q23.43,-19.42 20.86,-18.11Q18.29,-16.79 14.64,-16.79L14.64,-19.39Q18.85,-19.39 21.58,-18.11Q24.31,-16.82 25.66,-14.63Q27.02,-12.44 27.02,-9.74Q27.02,-6.68 25.35,-4.38Q23.69,-2.08 20.76,-0.79Q17.84,0.51 14.11,0.51ZM45.9,0.51Q41.95,0.51 38.98,-0.76Q36.01,-2.04 34.37,-4.37Q32.73,-6.7 32.73,-9.8Q32.73,-12.68 34.13,-14.84Q35.53,-17.01 38.09,-18.21Q40.64,-19.41 44.05,-19.41L44.05,-17.71Q41,-17.71 38.75,-18.89Q36.49,-20.07 35.23,-22.1Q33.97,-24.14 33.97,-26.74Q33.97,-29.59 35.46,-31.72Q36.94,-33.85 39.62,-35.03Q42.31,-36.21 45.9,-36.21Q49.51,-36.21 52.18,-35.03Q54.85,-33.85 56.34,-31.73Q57.82,-29.62 57.82,-26.77Q57.82,-24.2 56.58,-22.13Q55.34,-20.07 53.08,-18.89Q50.82,-17.71 47.75,-17.71L47.75,-19.41Q51.18,-19.41 53.72,-18.21Q56.27,-17.01 57.67,-14.86Q59.07,-12.71 59.07,-9.83Q59.07,-6.7 57.41,-4.37Q55.76,-2.04 52.81,-0.76Q49.87,0.51 45.9,0.51ZM45.9,-4.04Q48.22,-4.04 49.95,-4.81Q51.69,-5.59 52.67,-7.01Q53.65,-8.43 53.65,-10.3Q53.65,-12.18 52.67,-13.54Q51.69,-14.91 49.97,-15.66Q48.25,-16.41 45.93,-16.41Q43.63,-16.41 41.89,-15.66Q40.14,-14.91 39.14,-13.54Q38.15,-12.18 38.15,-10.3Q38.15,-8.43 39.13,-7.01Q40.11,-5.59 41.86,-4.81Q43.61,-4.04 45.9,-4.04ZM45.93,-20.53Q49.03,-20.53 50.85,-22.05Q52.67,-23.57 52.67,-26.05Q52.67,-28.57 50.83,-30.09Q49,-31.61 45.9,-31.61Q42.85,-31.61 41,-30.09Q39.15,-28.57 39.15,-26.05Q39.15,-23.57 41,-22.05Q42.85,-20.53 45.93,-20.53ZM70.08,0L81.1,-17.79L92.01,-35.7L97.4,-35.7L85.67,-16.71L75.49,0L70.08,0ZM71.85,-17.89Q69.16,-17.89 67.07,-19.06Q64.97,-20.23 63.79,-22.31Q62.61,-24.4 62.61,-27.08Q62.61,-29.78 63.79,-31.83Q64.97,-33.88 67.07,-35.04Q69.16,-36.21 71.85,-36.21Q74.51,-36.21 76.58,-35.04Q78.65,-33.88 79.83,-31.83Q81.01,-29.78 81.01,-27.08Q81.01,-24.4 79.83,-22.31Q78.65,-20.23 76.58,-19.06Q74.51,-17.89 71.85,-17.89ZM71.85,-21.9Q73.28,-21.9 74.37,-22.57Q75.47,-23.25 76.09,-24.42Q76.72,-25.59 76.72,-27.05Q76.72,-29.27 75.33,-30.73Q73.94,-32.18 71.85,-32.18Q69.71,-32.18 68.32,-30.73Q66.93,-29.27 66.93,-27.05Q66.93,-25.59 67.57,-24.42Q68.21,-23.25 69.32,-22.57Q70.42,-21.9 71.85,-21.9ZM95.67,0.51Q92.98,0.51 90.91,-0.66Q88.84,-1.82 87.65,-3.91Q86.45,-6 86.45,-8.68Q86.45,-11.38 87.65,-13.43Q88.84,-15.47 90.91,-16.64Q92.98,-17.81 95.67,-17.81Q98.35,-17.81 100.42,-16.64Q102.49,-15.47 103.67,-13.43Q104.85,-11.38 104.85,-8.68Q104.85,-6 103.67,-3.91Q102.49,-1.82 100.42,-0.66Q98.35,0.51 95.67,0.51ZM95.67,-3.52Q97.1,-3.52 98.19,-4.18Q99.28,-4.85 99.92,-6.02Q100.56,-7.19 100.56,-8.65Q100.56,-10.87 99.16,-12.33Q97.76,-13.8 95.67,-13.8Q93.55,-13.8 92.16,-12.33Q90.77,-10.87 90.77,-8.65Q90.77,-6.45 92.16,-4.98Q93.55,-3.52 95.67,-3.52Z" transform="translate(800.16,472.06)" fill="rgb(255, 255, 255)" stroke="none" stroke-width="1px" stroke-opacity="1"/><path d="M3.46,0L3.46,-30.8L13.8,-30.8Q17.08,-30.8 19.5,-29.65Q21.92,-28.49 23.27,-26.34Q24.62,-24.18 24.62,-21.13Q24.62,-18.12 23.27,-15.95Q21.92,-13.79 19.5,-12.65Q17.08,-11.52 13.8,-11.52L5.96,-11.52L5.96,-16L14.06,-16Q16.46,-16 17.88,-17.43Q19.29,-18.86 19.29,-21.13Q19.29,-23.39 17.88,-24.8Q16.46,-26.21 14.06,-26.21L6.61,-26.21L8.85,-28.29L8.85,0L3.46,0ZM36.36,0.44Q34.01,0.44 32.14,-0.51Q30.27,-1.46 29.18,-3.38Q28.1,-5.31 28.1,-8.23L28.1,-21.43L33.17,-21.43L33.17,-9.2Q33.17,-7.35 33.73,-6.25Q34.28,-5.15 35.26,-4.67Q36.24,-4.19 37.49,-4.19Q38.84,-4.19 39.9,-4.76Q40.95,-5.33 41.58,-6.5Q42.21,-7.67 42.21,-9.43L42.21,-21.43L47.27,-21.43L47.27,0L42.85,0L42.85,-5.9L44.31,-5.9Q43.86,-3.97 42.94,-2.72Q42.03,-1.47 40.88,-0.78Q39.73,-0.09 38.54,0.17Q37.35,0.44 36.36,0.44ZM64.75,0.44Q62.13,0.44 60.05,-0.83Q57.97,-2.09 56.77,-4.32L57.73,-5.39L57.73,0L53.13,0L53.13,-32.12L58.21,-32.12L58.21,-16.48L57.19,-17.69Q58.39,-19.62 60.34,-20.74Q62.3,-21.87 64.72,-21.87Q67.61,-21.87 69.9,-20.49Q72.19,-19.12 73.52,-16.66Q74.86,-14.19 74.86,-10.96L74.86,-10.53Q74.86,-7.23 73.54,-4.77Q72.22,-2.3 69.94,-0.93Q67.67,0.44 64.75,0.44ZM63.94,-4.02Q65.57,-4.02 66.9,-4.81Q68.23,-5.6 69,-7.07Q69.78,-8.53 69.78,-10.53L69.78,-10.96Q69.78,-12.96 69,-14.4Q68.23,-15.84 66.9,-16.62Q65.57,-17.4 63.94,-17.4Q62.23,-17.4 60.84,-16.59Q59.46,-15.78 58.67,-14.29Q57.89,-12.79 57.89,-10.7Q57.89,-8.64 58.67,-7.13Q59.46,-5.63 60.84,-4.82Q62.23,-4.02 63.94,-4.02ZM85.77,0Q82.86,0 81.12,-1.58Q79.38,-3.16 79.38,-5.94L79.38,-30.09L81.65,-27.82L75.82,-27.82L75.82,-32.12L84.45,-32.12L84.45,-5.85Q84.45,-5.17 84.92,-4.7Q85.39,-4.24 86.06,-4.24L88.32,-4.24L88.32,0L85.77,0ZM93.34,0L93.34,-19.39L95.61,-17.12L89.46,-17.12L89.46,-21.43L98.42,-21.43L98.42,0L93.34,0ZM93.09,-25.71L93.09,-31.53L98.72,-31.53L98.72,-25.71L93.09,-25.71ZM114.1,0.44Q110.87,0.44 108.35,-0.95Q105.83,-2.34 104.38,-4.81Q102.93,-7.28 102.93,-10.48L102.93,-10.97Q102.93,-14.21 104.4,-16.67Q105.86,-19.12 108.38,-20.49Q110.91,-21.87 114.1,-21.87Q116.49,-21.87 118.54,-20.93Q120.59,-19.99 121.88,-18.31L118.78,-15.2Q117.91,-16.22 116.7,-16.71Q115.5,-17.21 114.12,-17.21Q112.39,-17.21 111,-16.45Q109.62,-15.68 108.81,-14.28Q108.01,-12.89 108.01,-10.97L108.01,-10.48Q108.01,-8.57 108.83,-7.18Q109.65,-5.78 111.05,-5Q112.45,-4.22 114.18,-4.22Q115.5,-4.22 116.72,-4.68Q117.94,-5.14 118.94,-6.17L121.97,-3.12Q120.69,-1.47 118.59,-0.52Q116.49,0.44 114.1,0.44ZM145.47,0.44Q142.25,0.44 139.73,-0.95Q137.2,-2.34 135.75,-4.81Q134.3,-7.28 134.3,-10.48L134.3,-10.97Q134.3,-14.21 135.77,-16.67Q137.24,-19.12 139.76,-20.49Q142.28,-21.87 145.47,-21.87Q147.86,-21.87 149.91,-20.93Q151.96,-19.99 153.25,-18.31L150.15,-15.2Q149.28,-16.22 148.08,-16.71Q146.87,-17.21 145.49,-17.21Q143.76,-17.21 142.37,-16.45Q140.99,-15.68 140.18,-14.28Q139.38,-12.89 139.38,-10.97L139.38,-10.48Q139.38,-8.57 140.2,-7.18Q141.02,-5.78 142.42,-5Q143.82,-4.22 145.55,-4.22Q146.87,-4.22 148.09,-4.68Q149.31,-5.14 150.31,-6.17L153.35,-3.12Q152.06,-1.47 149.96,-0.52Q147.86,0.44 145.47,0.44ZM163.65,0Q160.74,0 159,-1.58Q157.26,-3.16 157.26,-5.94L157.26,-30.09L159.53,-27.82L153.7,-27.82L153.7,-32.12L162.33,-32.12L162.33,-5.85Q162.33,-5.17 162.8,-4.7Q163.27,-4.24 163.94,-4.24L166.2,-4.24L166.2,0L163.65,0ZM179.59,0L179.59,-5.94L185.41,-5.94L185.41,0L179.59,0ZM189.56,0L189.56,-5.94L195.38,-5.94L195.38,0L189.56,0ZM169.66,0L169.66,-5.94L175.48,-5.94L175.48,0L169.66,0Z" transform="translate(754.39,376.36)" fill="rgb(255, 255, 255)" stroke="none" stroke-width="1px" stroke-opacity="1"/><path d="M 860.3680455746264 881.1573176332205 A 468 468 0 0 1 104.86460460429839 712.2822906564294 L 348.5404260258913 615.804207888829 A 205.92 205.92 0 0 0 680.9619400528356 690.109219758617 Z" fill="#2453ff"/><path d="M14.11,0.51Q10.25,0.51 7.38,-0.73Q4.52,-1.97 2.43,-3.99L5.38,-7.53Q7.03,-5.92 9.13,-4.93Q11.23,-3.93 14.16,-3.93Q16.49,-3.93 18.21,-4.69Q19.93,-5.46 20.88,-6.82Q21.84,-8.18 21.84,-9.99Q21.84,-12.56 19.87,-14.09Q17.91,-15.62 14.54,-15.62L9.33,-15.62L9.33,-20.17L14.13,-20.17Q16.27,-20.17 17.8,-20.94Q19.34,-21.7 20.16,-23.02Q20.99,-24.34 20.99,-25.97Q20.99,-28.63 19.12,-30.15Q17.25,-31.66 14.15,-31.66Q11.5,-31.66 9.49,-30.68Q7.48,-29.69 6.17,-28.29L3.21,-31.89Q5.09,-33.76 7.95,-34.99Q10.8,-36.21 14.32,-36.21Q17.83,-36.21 20.49,-35.03Q23.15,-33.84 24.63,-31.69Q26.11,-29.54 26.11,-26.62Q26.11,-23.9 24.77,-21.66Q23.43,-19.42 20.86,-18.11Q18.29,-16.79 14.64,-16.79L14.64,-19.39Q18.85,-19.39 21.58,-18.11Q24.31,-16.82 25.66,-14.63Q27.02,-12.44 27.02,-9.74Q27.02,-6.68 25.35,-4.38Q23.69,-2.08 20.76,-0.79Q17.84,0.51 14.11,0.51ZM44.08,-1.92L44.08,-28.81Q44.08,-29.73 43.54,-30.3Q42.99,-30.86 42.08,-30.86L35.09,-30.86L35.09,-35.7L43.45,-35.7Q46,-35.7 47.63,-34.08Q49.25,-32.45 49.25,-29.92L49.25,-1.92L44.08,-1.92ZM35.1,0L35.1,-4.84L58.12,-4.84L58.12,0L35.1,0ZM70.08,0L81.1,-17.79L92.01,-35.7L97.4,-35.7L85.67,-16.71L75.49,0L70.08,0ZM71.85,-17.89Q69.16,-17.89 67.07,-19.06Q64.97,-20.23 63.79,-22.31Q62.61,-24.4 62.61,-27.08Q62.61,-29.78 63.79,-31.83Q64.97,-33.88 67.07,-35.04Q69.16,-36.21 71.85,-36.21Q74.51,-36.21 76.58,-35.04Q78.65,-33.88 79.83,-31.83Q81.01,-29.78 81.01,-27.08Q81.01,-24.4 79.83,-22.31Q78.65,-20.23 76.58,-19.06Q74.51,-17.89 71.85,-17.89ZM71.85,-21.9Q73.28,-21.9 74.37,-22.57Q75.47,-23.25 76.09,-24.42Q76.72,-25.59 76.72,-27.05Q76.72,-29.27 75.33,-30.73Q73.94,-32.18 71.85,-32.18Q69.71,-32.18 68.32,-30.73Q66.93,-29.27 66.93,-27.05Q66.93,-25.59 67.57,-24.42Q68.21,-23.25 69.32,-22.57Q70.42,-21.9 71.85,-21.9ZM95.67,0.51Q92.98,0.51 90.91,-0.66Q88.84,-1.82 87.65,-3.91Q86.45,-6 86.45,-8.68Q86.45,-11.38 87.65,-13.43Q88.84,-15.47 90.91,-16.64Q92.98,-17.81 95.67,-17.81Q98.35,-17.81 100.42,-16.64Q102.49,-15.47 103.67,-13.43Q104.85,-11.38 104.85,-8.68Q104.85,-6 103.67,-3.91Q102.49,-1.82 100.42,-0.66Q98.35,0.51 95.67,0.51ZM95.67,-3.52Q97.1,-3.52 98.19,-4.18Q99.28,-4.85 99.92,-6.02Q100.56,-7.19 100.56,-8.65Q100.56,-10.87 99.16,-12.33Q97.76,-13.8 95.67,-13.8Q93.55,-13.8 92.16,-12.33Q90.77,-10.87 90.77,-8.65Q90.77,-6.45 92.16,-4.98Q93.55,-3.52 95.67,-3.52Z" transform="translate(413.35,924.94)" fill="rgb(255, 255, 255)" stroke="none" stroke-width="1px" stroke-opacity="1"/><path d="M3.46,0L3.46,-30.8L14.55,-30.8Q17.81,-30.8 20.6,-29.71Q23.38,-28.63 25.45,-26.6Q27.51,-24.58 28.66,-21.84Q29.81,-19.09 29.81,-15.75L29.81,-15.27Q29.81,-11.91 28.64,-9.11Q27.48,-6.31 25.4,-4.27Q23.32,-2.23 20.54,-1.11Q17.76,0 14.55,0L3.46,0ZM8.85,-2.78L6.61,-5.05L14.12,-5.05Q17.07,-5.05 19.38,-6.34Q21.68,-7.63 22.98,-9.94Q24.29,-12.26 24.29,-15.27L24.29,-15.75Q24.29,-18.77 23,-21.01Q21.71,-23.24 19.42,-24.5Q17.13,-25.75 14.12,-25.75L6.61,-25.75L8.85,-28.02L8.85,-2.78ZM46.93,0L46.87,-6.54L46.3,-8.38L46.3,-13.52Q46.3,-15.64 45.11,-16.53Q43.93,-17.42 42.06,-17.42Q40.46,-17.42 38.72,-16.81Q36.99,-16.19 35.71,-15.03L33.43,-18.46Q34.86,-20.03 37.28,-20.95Q39.7,-21.87 42.38,-21.87Q45.04,-21.87 47.04,-20.94Q49.05,-20.02 50.18,-18.24Q51.31,-16.46 51.31,-13.82L51.31,-6.89Q51.31,-5.15 51.34,-3.44Q51.38,-1.72 51.44,0L46.93,0ZM40.73,0.44Q37.12,0.44 34.94,-1.34Q32.76,-3.12 32.76,-5.93Q32.76,-7.86 33.83,-9.34Q34.9,-10.81 36.85,-11.66Q38.81,-12.52 41.43,-12.52Q45.35,-12.52 47.33,-10.81Q49.3,-9.09 49.3,-6.27L48,-6.27Q48,-3.08 46.15,-1.32Q44.3,0.44 40.73,0.44ZM42.13,-3.28Q44.07,-3.28 45.2,-4.07Q46.32,-4.85 46.32,-6.14Q46.32,-7.38 45.19,-8.17Q44.06,-8.95 42.11,-8.95Q40.19,-8.95 39.03,-8.17Q37.87,-7.38 37.87,-6.13Q37.87,-4.88 39.04,-4.08Q40.22,-3.28 42.13,-3.28ZM64.89,0Q63.74,0 62.56,-0.28Q61.39,-0.57 60.42,-1.28Q59.46,-1.99 58.87,-3.21Q58.28,-4.43 58.28,-6.3L58.28,-26.66L63.35,-26.66L63.35,-5.91Q63.35,-5.23 63.82,-4.76Q64.29,-4.3 64.96,-4.3L68.34,-4.3L68.34,0L64.89,0ZM54.67,-17.12L54.67,-21.43L68.34,-21.43L68.34,-17.12L54.67,-17.12ZM85.48,0L85.42,-6.54L84.84,-8.38L84.84,-13.52Q84.84,-15.64 83.66,-16.53Q82.47,-17.42 80.61,-17.42Q79,-17.42 77.27,-16.81Q75.53,-16.19 74.26,-15.03L71.97,-18.46Q73.4,-20.03 75.82,-20.95Q78.25,-21.87 80.92,-21.87Q83.59,-21.87 85.59,-20.94Q87.59,-20.02 88.72,-18.24Q89.86,-16.46 89.86,-13.82L89.86,-6.89Q89.86,-5.15 89.89,-3.44Q89.92,-1.72 89.99,0L85.48,0ZM79.27,0.44Q75.67,0.44 73.48,-1.34Q71.3,-3.12 71.3,-5.93Q71.3,-7.86 72.37,-9.34Q73.44,-10.81 75.4,-11.66Q77.35,-12.52 79.98,-12.52Q83.89,-12.52 85.87,-10.81Q87.85,-9.09 87.85,-6.27L86.55,-6.27Q86.55,-3.08 84.7,-1.32Q82.84,0.44 79.27,0.44ZM80.67,-3.28Q82.62,-3.28 83.74,-4.07Q84.87,-4.85 84.87,-6.14Q84.87,-7.38 83.74,-8.17Q82.6,-8.95 80.65,-8.95Q78.73,-8.95 77.57,-8.17Q76.41,-7.38 76.41,-6.13Q76.41,-4.88 77.59,-4.08Q78.76,-3.28 80.67,-3.28ZM115.07,0.44Q111.84,0.44 109.32,-0.95Q106.8,-2.34 105.35,-4.81Q103.9,-7.28 103.9,-10.48L103.9,-10.97Q103.9,-14.21 105.36,-16.67Q106.83,-19.12 109.35,-20.49Q111.87,-21.87 115.07,-21.87Q117.45,-21.87 119.51,-20.93Q121.56,-19.99 122.85,-18.31L119.75,-15.2Q118.88,-16.22 117.67,-16.71Q116.47,-17.21 115.09,-17.21Q113.36,-17.21 111.97,-16.45Q110.58,-15.68 109.78,-14.28Q108.98,-12.89 108.98,-10.97L108.98,-10.48Q108.98,-8.57 109.8,-7.18Q110.62,-5.78 112.02,-5Q113.42,-4.22 115.15,-4.22Q116.47,-4.22 117.69,-4.68Q118.91,-5.14 119.91,-6.17L122.94,-3.12Q121.65,-1.47 119.55,-0.52Q117.45,0.44 115.07,0.44ZM135.73,0.44Q132.52,0.44 130.08,-0.95Q127.64,-2.33 126.27,-4.81Q124.89,-7.3 124.89,-10.58L124.89,-11.02Q124.89,-14.1 126.17,-16.54Q127.44,-18.99 129.76,-20.43Q132.07,-21.87 135.12,-21.87Q138.35,-21.87 140.64,-20.3Q142.92,-18.73 143.98,-15.88Q145.03,-13.03 144.53,-9.14L128.55,-9.14L128.55,-12.74L141.83,-12.74L139.59,-10.92Q139.92,-13.08 139.41,-14.62Q138.91,-16.16 137.8,-16.97Q136.69,-17.78 135.14,-17.78Q133.43,-17.78 132.26,-16.9Q131.1,-16.02 130.5,-14.51Q129.91,-12.99 129.91,-11.02L129.91,-9.97Q129.91,-8.26 130.63,-6.89Q131.34,-5.52 132.7,-4.73Q134.07,-3.95 135.97,-3.95Q137.62,-3.95 138.75,-4.39Q139.88,-4.83 140.78,-5.72L143.65,-2.7Q142.35,-1.14 140.33,-0.35Q138.3,0.44 135.73,0.44ZM149.1,0L149.1,-21.43L153.99,-21.43L153.99,-15.53L152.64,-15.53Q153.1,-17.47 153.99,-18.71Q154.87,-19.94 156,-20.63Q157.13,-21.31 158.31,-21.59Q159.49,-21.87 160.46,-21.87Q164.08,-21.87 166.26,-19.51Q168.45,-17.15 168.45,-12.75L168.45,0L163.37,0L163.37,-11.94Q163.37,-14.75 162.18,-15.99Q160.98,-17.24 159.04,-17.24Q157.68,-17.24 156.57,-16.62Q155.47,-16 154.82,-14.8Q154.18,-13.6 154.18,-11.83L154.18,0L149.1,0ZM181.93,0Q180.78,0 179.6,-0.28Q178.43,-0.57 177.46,-1.28Q176.5,-1.99 175.91,-3.21Q175.32,-4.43 175.32,-6.3L175.32,-26.66L180.39,-26.66L180.39,-5.91Q180.39,-5.23 180.86,-4.76Q181.33,-4.3 182,-4.3L185.38,-4.3L185.38,0L181.93,0ZM171.71,-17.12L171.71,-21.43L185.38,-21.43L185.38,-17.12L171.71,-17.12ZM199.3,0L199.3,-5.94L205.12,-5.94L205.12,0L199.3,0ZM209.27,0L209.27,-5.94L215.09,-5.94L215.09,0L209.27,0ZM189.37,0L189.37,-5.94L195.19,-5.94L195.19,0L189.37,0Z" transform="translate(357.73,829.24)" fill="rgb(255, 255, 255)" stroke="none" stroke-width="1px" stroke-opacity="1"/><path d="M 104.86460460429839 712.2822906564294 A 468 468 0 0 1 219.63195442537358 198.8426823667795 L 399.03805994716436 389.890780241383 A 205.92 205.92 0 0 0 348.5404260258913 615.804207888829 Z" fill="#fe7c3f"/><path d="M13.48,-1.92L13.48,-28.81Q13.48,-29.73 12.94,-30.3Q12.39,-30.86 11.48,-30.86L4.49,-30.86L4.49,-35.7L12.85,-35.7Q15.4,-35.7 17.03,-34.08Q18.65,-32.45 18.65,-29.92L18.65,-1.92L13.48,-1.92ZM4.5,0L4.5,-4.84L27.52,-4.84L27.52,0L4.5,0ZM38.59,0L49.92,-15.38L52.03,-15.53Q50.41,-13.92 48.5,-13.19Q46.58,-12.46 44.54,-12.46Q41.11,-12.46 38.47,-13.98Q35.84,-15.5 34.36,-18.17Q32.87,-20.84 32.87,-24.26Q32.87,-27.88 34.48,-30.57Q36.09,-33.25 38.97,-34.73Q41.84,-36.21 45.61,-36.21Q49.56,-36.21 52.43,-34.71Q55.31,-33.21 56.87,-30.48Q58.42,-27.74 58.42,-23.97Q58.42,-21.53 57.46,-19.11Q56.49,-16.68 54.81,-14.23L44.92,0L38.59,0ZM45.6,-16.87Q47.86,-16.87 49.54,-17.82Q51.22,-18.77 52.16,-20.45Q53.1,-22.13 53.1,-24.29Q53.1,-27.61 51.07,-29.62Q49.05,-31.63 45.69,-31.63Q43.5,-31.63 41.81,-30.7Q40.13,-29.76 39.18,-28.11Q38.23,-26.45 38.23,-24.29Q38.23,-22.13 39.17,-20.45Q40.11,-18.77 41.78,-17.82Q43.45,-16.87 45.6,-16.87ZM70.08,0L81.1,-17.79L92.01,-35.7L97.4,-35.7L85.67,-16.71L75.49,0L70.08,0ZM71.85,-17.89Q69.16,-17.89 67.07,-19.06Q64.97,-20.23 63.79,-22.31Q62.61,-24.4 62.61,-27.08Q62.61,-29.78 63.79,-31.83Q64.97,-33.88 67.07,-35.04Q69.16,-36.21 71.85,-36.21Q74.51,-36.21 76.58,-35.04Q78.65,-33.88 79.83,-31.83Q81.01,-29.78 81.01,-27.08Q81.01,-24.4 79.83,-22.31Q78.65,-20.23 76.58,-19.06Q74.51,-17.89 71.85,-17.89ZM71.85,-21.9Q73.28,-21.9 74.37,-22.57Q75.47,-23.25 76.09,-24.42Q76.72,-25.59 76.72,-27.05Q76.72,-29.27 75.33,-30.73Q73.94,-32.18 71.85,-32.18Q69.71,-32.18 68.32,-30.73Q66.93,-29.27 66.93,-27.05Q66.93,-25.59 67.57,-24.42Q68.21,-23.25 69.32,-22.57Q70.42,-21.9 71.85,-21.9ZM95.67,0.51Q92.98,0.51 90.91,-0.66Q88.84,-1.82 87.65,-3.91Q86.45,-6 86.45,-8.68Q86.45,-11.38 87.65,-13.43Q88.84,-15.47 90.91,-16.64Q92.98,-17.81 95.67,-17.81Q98.35,-17.81 100.42,-16.64Q102.49,-15.47 103.67,-13.43Q104.85,-11.38 104.85,-8.68Q104.85,-6 103.67,-3.91Q102.49,-1.82 100.42,-0.66Q98.35,0.51 95.67,0.51ZM95.67,-3.52Q97.1,-3.52 98.19,-4.18Q99.28,-4.85 99.92,-6.02Q100.56,-7.19 100.56,-8.65Q100.56,-10.87 99.16,-12.33Q97.76,-13.8 95.67,-13.8Q93.55,-13.8 92.16,-12.33Q90.77,-10.87 90.77,-8.65Q90.77,-6.45 92.16,-4.98Q93.55,-3.52 95.67,-3.52Z" transform="translate(158.01,522.59)" fill="rgb(17, 17, 17)" stroke="none" stroke-width="1px" stroke-opacity="1"/><path d="M8.32,0Q6.09,0 4.64,-1.46Q3.19,-2.91 3.19,-5.13L3.19,-25.67Q3.19,-27.89 4.64,-29.34Q6.09,-30.8 8.32,-30.8L23.31,-30.8L23.31,-25.89L10.13,-25.89Q9.45,-25.89 8.99,-25.42Q8.52,-24.95 8.52,-24.28L8.52,-6.52Q8.52,-5.85 8.99,-5.38Q9.45,-4.91 10.13,-4.91L23.31,-4.91L23.31,0L8.32,0ZM5.81,-13.12L5.81,-17.81L22.39,-17.81L22.39,-13.12L5.81,-13.12ZM36.74,0.44Q33.85,0.44 31.55,-0.93Q29.26,-2.3 27.94,-4.77Q26.62,-7.23 26.62,-10.53L26.62,-10.96Q26.62,-14.19 27.96,-16.66Q29.3,-19.12 31.61,-20.49Q33.91,-21.87 36.77,-21.87Q39.24,-21.87 41.18,-20.74Q43.12,-19.62 44.3,-17.69L43.28,-16.48L43.28,-32.12L48.36,-32.12L48.36,0L43.79,0L43.79,-5.42L44.75,-4.38Q43.51,-2.09 41.45,-0.83Q39.39,0.44 36.74,0.44ZM37.54,-4.02Q39.29,-4.02 40.66,-4.82Q42.03,-5.63 42.82,-7.13Q43.6,-8.64 43.6,-10.7Q43.6,-12.79 42.82,-14.29Q42.03,-15.78 40.66,-16.59Q39.29,-17.4 37.54,-17.4Q35.91,-17.4 34.58,-16.62Q33.25,-15.84 32.47,-14.4Q31.7,-12.96 31.7,-10.96L31.7,-10.53Q31.7,-8.53 32.47,-7.07Q33.25,-5.6 34.58,-4.81Q35.91,-4.02 37.54,-4.02ZM52.55,8.8L52.55,4.61L65.53,4.61Q66.6,4.61 67.13,4.11Q67.67,3.62 67.67,2.7Q67.67,1.8 67.13,1.34Q66.6,0.88 65.53,0.88L58.06,0.88Q56.4,0.88 55.46,0.04Q54.52,-0.79 54.38,-2.09Q54.24,-3.39 54.91,-4.74L57.05,-9.07L61.34,-8.01L59.43,-4.2Q59.31,-3.96 59.28,-3.7Q59.26,-3.44 59.43,-3.27Q59.61,-3.09 60,-3.09L66.28,-3.09Q69,-3.09 70.71,-1.67Q72.42,-0.25 72.42,2.77Q72.42,4.51 71.62,5.87Q70.81,7.23 69.38,8.01Q67.95,8.8 66.04,8.8L52.55,8.8ZM62.33,-5.85Q59.55,-5.85 57.42,-6.86Q55.28,-7.87 54.06,-9.66Q52.84,-11.45 52.84,-13.75L52.84,-14.17Q52.84,-16.42 54.06,-18.17Q55.28,-19.91 57.42,-20.89Q59.55,-21.87 62.33,-21.87Q65.11,-21.87 67.25,-20.89Q69.39,-19.92 70.6,-18.19Q71.8,-16.46 71.8,-14.22L71.8,-13.75Q71.8,-11.45 70.6,-9.66Q69.39,-7.87 67.25,-6.86Q65.11,-5.85 62.33,-5.85ZM62.33,-9.71Q63.39,-9.71 64.41,-10.09Q65.43,-10.48 66.13,-11.41Q66.83,-12.34 66.83,-13.94Q66.83,-15.66 65.58,-16.73Q64.32,-17.79 62.33,-17.79Q60.34,-17.79 59.08,-16.73Q57.82,-15.68 57.82,-13.94Q57.82,-12.35 58.53,-11.41Q59.24,-10.48 60.28,-10.09Q61.32,-9.71 62.33,-9.71ZM61.28,-18.65L64.72,-26.04L69.83,-26.04L65.78,-18.65L61.28,-18.65ZM85.88,0.44Q82.67,0.44 80.23,-0.95Q77.78,-2.33 76.41,-4.81Q75.04,-7.3 75.04,-10.58L75.04,-11.02Q75.04,-14.1 76.31,-16.54Q77.59,-18.99 79.9,-20.43Q82.22,-21.87 85.26,-21.87Q88.5,-21.87 90.78,-20.3Q93.07,-18.73 94.12,-15.88Q95.18,-13.03 94.68,-9.14L78.7,-9.14L78.7,-12.74L91.97,-12.74L89.74,-10.92Q90.07,-13.08 89.56,-14.62Q89.06,-16.16 87.95,-16.97Q86.84,-17.78 85.29,-17.78Q83.58,-17.78 82.41,-16.9Q81.25,-16.02 80.65,-14.51Q80.06,-12.99 80.06,-11.02L80.06,-9.97Q80.06,-8.26 80.77,-6.89Q81.49,-5.52 82.85,-4.73Q84.22,-3.95 86.12,-3.95Q87.77,-3.95 88.9,-4.39Q90.03,-4.83 90.93,-5.72L93.8,-2.7Q92.5,-1.14 90.48,-0.35Q88.45,0.44 85.88,0.44ZM115.4,0.38Q112.84,0.38 110.72,-0.37Q108.59,-1.11 107.2,-2.22L109.38,-5.67Q110.69,-4.76 112.24,-4.16Q113.8,-3.56 115.4,-3.56Q116.98,-3.56 117.94,-4.22Q118.9,-4.88 118.9,-5.96Q118.9,-6.99 118.11,-7.51Q117.33,-8.03 116.1,-8.36Q114.87,-8.7 113.49,-9.07Q112.11,-9.43 110.88,-10.09Q109.65,-10.74 108.86,-11.93Q108.08,-13.13 108.08,-15.15Q108.08,-18.12 110.3,-19.99Q112.53,-21.87 116.35,-21.87Q118.45,-21.87 120.35,-21.3Q122.25,-20.73 123.71,-19.73L121.5,-16.31Q120.33,-17.1 119,-17.54Q117.68,-17.98 116.29,-17.98Q114.77,-17.98 113.85,-17.31Q112.92,-16.65 112.92,-15.58Q112.92,-14.6 113.72,-14.06Q114.53,-13.53 115.79,-13.19Q117.05,-12.85 118.45,-12.46Q119.86,-12.07 121.12,-11.39Q122.38,-10.71 123.18,-9.51Q123.98,-8.3 123.98,-6.27Q123.98,-4.32 122.87,-2.82Q121.77,-1.33 119.84,-0.47Q117.91,0.38 115.4,0.38ZM130.3,0L130.3,-19.39L132.57,-17.12L126.42,-17.12L126.42,-21.43L135.38,-21.43L135.38,0L130.3,0ZM130.05,-25.71L130.05,-31.53L135.68,-31.53L135.68,-25.71L130.05,-25.71ZM149.37,0Q148.22,0 147.04,-0.28Q145.87,-0.57 144.9,-1.28Q143.94,-1.99 143.35,-3.21Q142.76,-4.43 142.76,-6.3L142.76,-26.66L147.83,-26.66L147.83,-5.91Q147.83,-5.23 148.3,-4.76Q148.77,-4.3 149.44,-4.3L152.82,-4.3L152.82,0L149.37,0ZM139.15,-17.12L139.15,-21.43L152.82,-21.43L152.82,-17.12L139.15,-17.12ZM166.22,0.44Q163.01,0.44 160.57,-0.95Q158.13,-2.33 156.76,-4.81Q155.39,-7.3 155.39,-10.58L155.39,-11.02Q155.39,-14.1 156.66,-16.54Q157.93,-18.99 160.25,-20.43Q162.57,-21.87 165.61,-21.87Q168.84,-21.87 171.13,-20.3Q173.41,-18.73 174.47,-15.88Q175.52,-13.03 175.02,-9.14L159.05,-9.14L159.05,-12.74L172.32,-12.74L170.08,-10.92Q170.41,-13.08 169.91,-14.62Q169.4,-16.16 168.29,-16.97Q167.19,-17.78 165.63,-17.78Q163.92,-17.78 162.76,-16.9Q161.59,-16.02 161,-14.51Q160.4,-12.99 160.4,-11.02L160.4,-9.97Q160.4,-8.26 161.12,-6.89Q161.83,-5.52 163.2,-4.73Q164.56,-3.95 166.47,-3.95Q168.11,-3.95 169.24,-4.39Q170.38,-4.83 171.27,-5.72L174.14,-2.7Q172.85,-1.14 170.82,-0.35Q168.79,0.44 166.22,0.44ZM186.02,0.38Q183.46,0.38 181.34,-0.37Q179.21,-1.11 177.82,-2.22L180,-5.67Q181.31,-4.76 182.86,-4.16Q184.42,-3.56 186.02,-3.56Q187.6,-3.56 188.56,-4.22Q189.52,-4.88 189.52,-5.96Q189.52,-6.99 188.73,-7.51Q187.95,-8.03 186.72,-8.36Q185.49,-8.7 184.11,-9.07Q182.73,-9.43 181.5,-10.09Q180.27,-10.74 179.48,-11.93Q178.7,-13.13 178.7,-15.15Q178.7,-18.12 180.92,-19.99Q183.15,-21.87 186.97,-21.87Q189.07,-21.87 190.97,-21.3Q192.87,-20.73 194.33,-19.73L192.12,-16.31Q190.95,-17.1 189.62,-17.54Q188.3,-17.98 186.91,-17.98Q185.39,-17.98 184.47,-17.31Q183.54,-16.65 183.54,-15.58Q183.54,-14.6 184.34,-14.06Q185.15,-13.53 186.41,-13.19Q187.67,-12.85 189.07,-12.46Q190.48,-12.07 191.74,-11.39Q193,-10.71 193.8,-9.51Q194.6,-8.3 194.6,-6.27Q194.6,-4.32 193.49,-2.82Q192.39,-1.33 190.46,-0.47Q188.53,0.38 186.02,0.38Z" transform="translate(113.08,426.89)" fill="rgb(17, 17, 17)" stroke="none" stroke-width="1px" stroke-opacity="1"/><path d="M 219.63195442537358 198.8426823667795 A 468 468 0 0 1 539.9999999999999 72 L 540 334.08000000000004 A 205.92 205.92 0 0 0 399.03805994716436 389.890780241383 Z" fill="#00bda7"/><path d="M13.48,-1.92L13.48,-28.81Q13.48,-29.73 12.94,-30.3Q12.39,-30.86 11.48,-30.86L4.49,-30.86L4.49,-35.7L12.85,-35.7Q15.4,-35.7 17.03,-34.08Q18.65,-32.45 18.65,-29.92L18.65,-1.92L13.48,-1.92ZM4.5,0L4.5,-4.84L27.52,-4.84L27.52,0L4.5,0ZM33.91,0L33.91,-3.91L46.74,-16.86Q48.44,-18.56 49.37,-19.97Q50.31,-21.38 50.71,-22.67Q51.12,-23.95 51.12,-25.18Q51.12,-27.98 49.44,-29.61Q47.77,-31.23 44.92,-31.23Q42.55,-31.23 40.57,-29.95Q38.59,-28.67 36.95,-26.29L33.53,-29.59Q35.52,-32.69 38.5,-34.45Q41.48,-36.21 45.09,-36.21Q48.53,-36.21 51.08,-34.88Q53.64,-33.54 55.07,-31.19Q56.49,-28.84 56.49,-25.7Q56.49,-23.93 55.93,-22.05Q55.36,-20.18 54.05,-18.17Q52.73,-16.15 50.42,-13.82L40.04,-3.37L39.77,-4.75L57.94,-4.75L57.94,0L33.91,0ZM70.08,0L81.1,-17.79L92.01,-35.7L97.4,-35.7L85.67,-16.71L75.49,0L70.08,0ZM71.85,-17.89Q69.16,-17.89 67.07,-19.06Q64.97,-20.23 63.79,-22.31Q62.61,-24.4 62.61,-27.08Q62.61,-29.78 63.79,-31.83Q64.97,-33.88 67.07,-35.04Q69.16,-36.21 71.85,-36.21Q74.51,-36.21 76.58,-35.04Q78.65,-33.88 79.83,-31.83Q81.01,-29.78 81.01,-27.08Q81.01,-24.4 79.83,-22.31Q78.65,-20.23 76.58,-19.06Q74.51,-17.89 71.85,-17.89ZM71.85,-21.9Q73.28,-21.9 74.37,-22.57Q75.47,-23.25 76.09,-24.42Q76.72,-25.59 76.72,-27.05Q76.72,-29.27 75.33,-30.73Q73.94,-32.18 71.85,-32.18Q69.71,-32.18 68.32,-30.73Q66.93,-29.27 66.93,-27.05Q66.93,-25.59 67.57,-24.42Q68.21,-23.25 69.32,-22.57Q70.42,-21.9 71.85,-21.9ZM95.67,0.51Q92.98,0.51 90.91,-0.66Q88.84,-1.82 87.65,-3.91Q86.45,-6 86.45,-8.68Q86.45,-11.38 87.65,-13.43Q88.84,-15.47 90.91,-16.64Q92.98,-17.81 95.67,-17.81Q98.35,-17.81 100.42,-16.64Q102.49,-15.47 103.67,-13.43Q104.85,-11.38 104.85,-8.68Q104.85,-6 103.67,-3.91Q102.49,-1.82 100.42,-0.66Q98.35,0.51 95.67,0.51ZM95.67,-3.52Q97.1,-3.52 98.19,-4.18Q99.28,-4.85 99.92,-6.02Q100.56,-7.19 100.56,-8.65Q100.56,-10.87 99.16,-12.33Q97.76,-13.8 95.67,-13.8Q93.55,-13.8 92.16,-12.33Q90.77,-10.87 90.77,-8.65Q90.77,-6.45 92.16,-4.98Q93.55,-3.52 95.67,-3.52Z" transform="translate(362.81,282.8)" fill="rgb(17, 17, 17)" stroke="none" stroke-width="1px" stroke-opacity="1"/><path d="M0.26,0L11.52,-30.8L18.17,-30.8L29.41,0L23.87,0L14.47,-26.68L15.24,-26.68L5.79,0L0.26,0ZM5.2,-7.56L6.96,-12.13L22.8,-12.13L24.59,-7.56L5.2,-7.56ZM33.23,0L33.23,-19.39L35.5,-17.12L29.35,-17.12L29.35,-21.43L38.31,-21.43L38.31,0L33.23,0ZM32.99,-25.71L32.99,-31.53L38.62,-31.53L38.62,-25.71L32.99,-25.71ZM44.16,0L44.16,-21.43L49.07,-21.43L49.07,-15.22L48.43,-15.25Q48.58,-17.71 49.45,-19.09Q50.33,-20.47 51.73,-21.03Q53.14,-21.59 54.83,-21.59L56.57,-21.59L56.57,-16.57L54.41,-16.57Q51.93,-16.57 50.58,-15.44Q49.24,-14.31 49.24,-12.1L49.24,0L44.16,0ZM58.83,-9.63L58.83,-14.71L72.19,-14.71L72.19,-9.63L58.83,-9.63ZM75.6,8.8L75.6,4.61L88.58,4.61Q89.65,4.61 90.19,4.11Q90.73,3.62 90.73,2.7Q90.73,1.8 90.19,1.34Q89.65,0.88 88.58,0.88L81.12,0.88Q79.46,0.88 78.51,0.04Q77.57,-0.79 77.43,-2.09Q77.3,-3.39 77.97,-4.74L80.11,-9.07L84.39,-8.01L82.48,-4.2Q82.36,-3.96 82.34,-3.7Q82.31,-3.44 82.49,-3.27Q82.67,-3.09 83.05,-3.09L89.33,-3.09Q92.06,-3.09 93.77,-1.67Q95.48,-0.25 95.48,2.77Q95.48,4.51 94.68,5.87Q93.87,7.23 92.44,8.01Q91.01,8.8 89.1,8.8L75.6,8.8ZM85.39,-5.85Q82.61,-5.85 80.47,-6.86Q78.34,-7.87 77.12,-9.66Q75.9,-11.45 75.9,-13.75L75.9,-14.17Q75.9,-16.42 77.12,-18.17Q78.34,-19.91 80.47,-20.89Q82.61,-21.87 85.39,-21.87Q88.16,-21.87 90.31,-20.89Q92.45,-19.92 93.65,-18.19Q94.86,-16.46 94.86,-14.22L94.86,-13.75Q94.86,-11.45 93.65,-9.66Q92.45,-7.87 90.31,-6.86Q88.16,-5.85 85.39,-5.85ZM85.39,-9.71Q86.45,-9.71 87.47,-10.09Q88.49,-10.48 89.19,-11.41Q89.89,-12.34 89.89,-13.94Q89.89,-15.66 88.63,-16.73Q87.38,-17.79 85.39,-17.79Q83.4,-17.79 82.14,-16.73Q80.87,-15.68 80.87,-13.94Q80.87,-12.35 81.58,-11.41Q82.29,-10.48 83.34,-10.09Q84.38,-9.71 85.39,-9.71ZM84.34,-18.65L87.77,-26.04L92.88,-26.04L88.84,-18.65L84.34,-18.65ZM111.92,0L111.86,-6.54L111.28,-8.38L111.28,-13.52Q111.28,-15.64 110.1,-16.53Q108.91,-17.42 107.05,-17.42Q105.45,-17.42 103.71,-16.81Q101.98,-16.19 100.7,-15.03L98.41,-18.46Q99.84,-20.03 102.27,-20.95Q104.69,-21.87 107.37,-21.87Q110.03,-21.87 112.03,-20.94Q114.03,-20.02 115.17,-18.24Q116.3,-16.46 116.3,-13.82L116.3,-6.89Q116.3,-5.15 116.33,-3.44Q116.37,-1.72 116.43,0L111.92,0ZM105.72,0.44Q102.11,0.44 99.93,-1.34Q97.75,-3.12 97.75,-5.93Q97.75,-7.86 98.82,-9.34Q99.89,-10.81 101.84,-11.66Q103.8,-12.52 106.42,-12.52Q110.34,-12.52 112.31,-10.81Q114.29,-9.09 114.29,-6.27L112.99,-6.27Q112.99,-3.08 111.14,-1.32Q109.29,0.44 105.72,0.44ZM107.12,-3.28Q109.06,-3.28 110.19,-4.07Q111.31,-4.85 111.31,-6.14Q111.31,-7.38 110.18,-8.17Q109.05,-8.95 107.1,-8.95Q105.17,-8.95 104.02,-8.17Q102.86,-7.38 102.86,-6.13Q102.86,-4.88 104.03,-4.08Q105.2,-3.28 107.12,-3.28ZM121.95,8.8L121.95,-21.43L126.7,-21.43L126.7,-16.23L125.71,-17.36Q126.92,-19.45 128.97,-20.66Q131.02,-21.87 133.53,-21.87Q136.43,-21.87 138.71,-20.49Q141,-19.12 142.34,-16.66Q143.67,-14.19 143.67,-10.96L143.67,-10.53Q143.67,-7.23 142.35,-4.77Q141.03,-2.3 138.76,-0.93Q136.49,0.44 133.57,0.44Q131.15,0.44 129.17,-0.69Q127.2,-1.81 125.97,-3.74L127.03,-4.93L127.03,8.8L121.95,8.8ZM132.75,-4.02Q134.38,-4.02 135.71,-4.81Q137.05,-5.6 137.82,-7.07Q138.59,-8.53 138.59,-10.53L138.59,-10.96Q138.59,-12.96 137.82,-14.4Q137.05,-15.84 135.71,-16.62Q134.38,-17.4 132.75,-17.4Q131.04,-17.4 129.66,-16.59Q128.27,-15.78 127.49,-14.29Q126.7,-12.79 126.7,-10.7Q126.7,-8.64 127.49,-7.13Q128.27,-5.63 129.66,-4.82Q131.04,-4.02 132.75,-4.02ZM148.22,8.8L148.22,-21.43L152.97,-21.43L152.97,-16.23L151.98,-17.36Q153.19,-19.45 155.24,-20.66Q157.29,-21.87 159.8,-21.87Q162.69,-21.87 164.98,-20.49Q167.27,-19.12 168.6,-16.66Q169.94,-14.19 169.94,-10.96L169.94,-10.53Q169.94,-7.23 168.62,-4.77Q167.3,-2.3 165.03,-0.93Q162.76,0.44 159.83,0.44Q157.41,0.44 155.44,-0.69Q153.47,-1.81 152.24,-3.74L153.3,-4.93L153.3,8.8L148.22,8.8ZM159.02,-4.02Q160.65,-4.02 161.98,-4.81Q163.32,-5.6 164.09,-7.07Q164.86,-8.53 164.86,-10.53L164.86,-10.96Q164.86,-12.96 164.09,-14.4Q163.32,-15.84 161.98,-16.62Q160.65,-17.4 159.02,-17.4Q157.31,-17.4 155.93,-16.59Q154.54,-15.78 153.75,-14.29Q152.97,-12.79 152.97,-10.7Q152.97,-8.64 153.75,-7.13Q154.54,-5.63 155.93,-4.82Q157.31,-4.02 159.02,-4.02ZM184,0.44Q180.79,0.44 178.35,-0.95Q175.9,-2.33 174.53,-4.81Q173.16,-7.3 173.16,-10.58L173.16,-11.02Q173.16,-14.1 174.43,-16.54Q175.71,-18.99 178.02,-20.43Q180.34,-21.87 183.38,-21.87Q186.62,-21.87 188.9,-20.3Q191.19,-18.73 192.24,-15.88Q193.3,-13.03 192.8,-9.14L176.82,-9.14L176.82,-12.74L190.09,-12.74L187.86,-10.92Q188.19,-13.08 187.68,-14.62Q187.18,-16.16 186.07,-16.97Q184.96,-17.78 183.41,-17.78Q181.7,-17.78 180.53,-16.9Q179.37,-16.02 178.77,-14.51Q178.18,-12.99 178.18,-11.02L178.18,-9.97Q178.18,-8.26 178.89,-6.89Q179.61,-5.52 180.97,-4.73Q182.34,-3.95 184.24,-3.95Q185.89,-3.95 187.02,-4.39Q188.15,-4.83 189.05,-5.72L191.92,-2.7Q190.62,-1.14 188.6,-0.35Q186.57,0.44 184,0.44ZM206.18,0.44Q203.29,0.44 201,-0.93Q198.7,-2.3 197.38,-4.77Q196.06,-7.23 196.06,-10.53L196.06,-10.96Q196.06,-14.19 197.41,-16.66Q198.75,-19.12 201.05,-20.49Q203.36,-21.87 206.22,-21.87Q208.68,-21.87 210.62,-20.74Q212.56,-19.62 213.75,-17.69L212.72,-16.48L212.72,-32.12L217.8,-32.12L217.8,0L213.24,0L213.24,-5.42L214.2,-4.38Q212.95,-2.09 210.9,-0.83Q208.84,0.44 206.18,0.44ZM206.98,-4.02Q208.74,-4.02 210.11,-4.82Q211.48,-5.63 212.26,-7.13Q213.05,-8.64 213.05,-10.7Q213.05,-12.79 212.26,-14.29Q211.48,-15.78 210.11,-16.59Q208.74,-17.4 206.98,-17.4Q205.35,-17.4 204.02,-16.62Q202.69,-15.84 201.92,-14.4Q201.14,-12.96 201.14,-10.96L201.14,-10.53Q201.14,-8.53 201.92,-7.07Q202.69,-5.6 204.02,-4.81Q205.35,-4.02 206.98,-4.02Z" transform="translate(305.58,187.1)" fill="rgb(17, 17, 17)" stroke="none" stroke-width="1px" stroke-opacity="1"/></g>
</svg>